<?xml version="1.0" standalone="no"?>
<!DOCTYPE svg PUBLIC "-//W3C//DTD SVG 1.1//EN" "http://www.w3.org/Graphics/SVG/1.1/DTD/svg11.dtd" >
<svg xmlns="http://www.w3.org/2000/svg">
<defs>
  <font id="nike" horiz-adv-x="266.6666666666667">
    <font-face font-family="nike"
      units-per-em="256" ascent="256"
      descent="0" />
    <missing-glyph horiz-adv-x="0" />
    <glyph glyph-name="times"
      unicode="&#xEA02;"
      horiz-adv-x="256" d="M202.6666666666667 187.6266666666667L187.6266666666667 202.6666666666667L128 143.04L68.3733333333333 202.6666666666667L53.3333333333333 187.6266666666667L112.96 128L53.3333333333333 68.3733333333333L68.3733333333333 53.3333333333333L128 112.96L187.6266666666667 53.3333333333333L202.6666666666667 68.3733333333333L143.04 128L202.6666666666667 187.6266666666667z" />
    <glyph glyph-name="facebook"
      unicode="&#xEA03;"
      horiz-adv-x="256" d="M162.6986666666667 234.6666666666667C131.872 234.6666666666667 113.7813333333333 218.8053333333334 113.7813333333333 182.656V150.8586666666667H74.6666666666667V112.7573333333334H113.7813333333333V21.3333333333333H152.8853333333333V112.7573333333334H184.1813333333333L192 150.8586666666667H152.8853333333333V176.2133333333334C152.8853333333333 189.8346666666667 157.4506666666667 196.576 170.5706666666667 196.576H192V233.1093333333333C188.288 233.5893333333334 177.4933333333334 234.6666666666667 162.6986666666667 234.6666666666667z" />
    <glyph glyph-name="google"
      unicode="&#xEA04;"
      horiz-adv-x="256" d="M128 224C74.9546666666667 224 32 181.0453333333333 32 128S74.9546666666667 32 128 32S224 74.9546666666667 224 128C224 134.5813333333333 223.296 141.0026666666667 221.9946666666667 147.2L221.504 149.3333333333334H128V117.3333333333334H192C186.912 87.0826666666667 159.712 64 128 64C92.6613333333333 64 64 92.672 64 128C64 163.3386666666667 92.672 192 128 192C144 192 158.5813333333333 186.08 169.8346666666667 176.3733333333333L192.7466666666667 198.8373333333333A95.59466666666667 95.59466666666667 0 0 1 128 224z" />
    <glyph glyph-name="pencil"
      unicode="&#xEA05;"
      horiz-adv-x="256" d="M220.9066666666667 180.9066666666667C225.0666666666667 185.0666666666667 225.0666666666667 192 220.9066666666667 195.9466666666667L195.9466666666667 220.9066666666667C192 225.0666666666667 185.0666666666667 225.0666666666667 180.9066666666667 220.9066666666667L161.28 201.3866666666667L201.28 161.3866666666667L220.9066666666667 180.9066666666667zM32 72V32H72L189.9733333333333 150.08L149.9733333333333 190.08L32 72z" />
    <glyph glyph-name="Placeholder"
      unicode="&#xEA06;"
      horiz-adv-x="256" d="M112.5 230.891C91.858 227.914 70.077 216.854 55.273 201.833C45.473 191.889 40.758 185.321 34.93 173.5C4.202 111.172 42.742 36.665 111.5 25.473C164.188 16.897 214.845 50.193 228.692 102.5C231.011 111.26 231.339 114.422 231.339 128C231.339 141.634 231.018 144.704 228.669 153.5C223.735 171.974 215.694 186.113 202.034 200.337C178.886 224.439 145.876 235.704 112.5 230.891M151.421 212.5C183.057 203.314 205.406 180.127 213.59 148C216.101 138.142 216.194 118.502 213.778 108.492C205.869 75.726 182.933 52.356 149.316 42.811C138.142 39.638 117.858 39.638 106.684 42.811C84.116 49.219 67.049 61.1 55.519 78.429C45.814 93.014 41.297 106.55 40.309 124C37.826 167.888 70.592 208.04 114.536 214.957C124.623 216.545 141.321 215.433 151.421 212.5" />
    <glyph glyph-name="search-solid-1"
      unicode="&#xEA07;"
      horiz-adv-x="256" d="M101.3333333333333 224A69.33333333333334 69.33333333333334 0 0 0 170.6666666666667 154.6666666666667C170.6666666666667 137.4933333333334 164.3733333333333 121.7066666666667 154.0266666666667 109.5466666666667L156.9066666666667 106.6666666666667H165.3333333333333L218.6666666666666 53.3333333333334L202.6666666666666 37.3333333333334L149.3333333333333 90.6666666666667V99.0933333333334L146.4533333333333 101.9733333333334A69.504 69.504 0 0 0 101.3333333333333 85.3333333333333A69.33333333333334 69.33333333333334 0 1 0 101.3333333333333 224zM101.3333333333333 202.6666666666667C74.6666666666667 202.6666666666667 53.3333333333333 181.3333333333334 53.3333333333333 154.6666666666667S74.6666666666667 106.6666666666667 101.3333333333333 106.6666666666667S149.3333333333333 128 149.3333333333333 154.6666666666667S128 202.6666666666667 101.3333333333333 202.6666666666667z" />
    <glyph glyph-name="running-solid-1"
      unicode="&#xEA08;"
      horiz-adv-x="256" d="M144 197.3333333333334C155.6266666666667 197.3333333333334 165.3333333333334 207.1466666666667 165.3333333333334 218.6666666666667A21.333333333333332 21.333333333333332 0 0 1 144 240C132.16 240 122.6666666666667 230.6133333333334 122.6666666666667 218.6666666666667C122.6666666666667 207.1466666666667 132.16 197.3333333333334 144 197.3333333333334zM105.4933333333333 49.28L116.16 96L138.6666666666667 74.6666666666667V10.6666666666667H160V90.6666666666667L137.4933333333334 112L144 144A77.76000000000002 77.76000000000002 0 0 1 202.6666666666667 117.3333333333334V138.6666666666667C182.2933333333333 138.6666666666667 165.3333333333333 149.3333333333334 156.6933333333333 164.48L146.0266666666667 181.3333333333334C141.76 187.9466666666667 135.36 192 128 192C124.6933333333333 192 122.6666666666667 191.1466666666667 119.36 191.1466666666667L64 167.68V117.3333333333334H85.3333333333333V153.8133333333333L104.4266666666667 161.28L87.36 74.6666666666667L35.0933333333333 85.3333333333333L30.8266666666667 64L105.4933333333333 49.28z" />
    <glyph glyph-name="jordan"
      unicode="&#xEA09;"
      horiz-adv-x="256" d="M68.3413333333333 100.5546666666667C66.6346666666667 97.568 63.872 95.0186666666667 60.896 93.1093333333333C60.0426666666667 92.4693333333333 58.976 92.256 58.1226666666667 92.256C56.8426666666667 92.256 55.5733333333333 92.0426666666667 54.2933333333333 92.0426666666667C53.2266666666667 91.8293333333333 52.3733333333333 91.616 51.5306666666667 90.7626666666667L50.8906666666667 89.9093333333333V89.4826666666667C50.8906666666667 89.2693333333333 51.104 89.2693333333333 51.104 89.056C51.3173333333333 88.8426666666667 51.5306666666667 88.8426666666667 51.744 88.8426666666667C52.5973333333333 88.6293333333333 53.664 88.6293333333333 54.5173333333333 88.6293333333333C55.3706666666667 88.6293333333333 56.4266666666667 88.6293333333333 57.28 88.416C57.4933333333333 88.416 57.7066666666667 88.2026666666666 57.92 88.2026666666666L58.1333333333333 87.9893333333333L58.3466666666667 87.776C58.3466666666667 87.36 58.56 86.9333333333333 58.7733333333333 86.7199999999999C59.2 86.2933333333333 59.84 86.08 60.4693333333333 85.8666666666666L66.208 83.9466666666666C67.0613333333333 83.5306666666666 67.7013333333333 83.3173333333333 68.3413333333333 82.6773333333333C68.9813333333333 83.9573333333333 70.2613333333333 85.024 71.5413333333333 85.2373333333333A9.6 9.6 0 0 0 75.7866666666667 85.024C77.7066666666667 84.5973333333333 79.6266666666667 84.384 81.536 84.1706666666667V88.64C80.896 88.4266666666667 80.256 88.4266666666667 79.8293333333334 88.8533333333334C79.1893333333334 89.28 78.976 89.7066666666667 78.5493333333334 90.56A9.44 9.44 0 0 0 78.1226666666667 95.4453333333334C78.336 96.512 78.5493333333334 97.3653333333334 79.1893333333334 98.2186666666667C79.616 98.8586666666667 80.6826666666667 99.072 81.536 98.8586666666667V103.9466666666667L82.176 104.5866666666667H84.2986666666667C86.2186666666667 106.5066666666666 88.3413333333333 108.416 90.464 110.3253333333333C92.8106666666667 112.032 94.5173333333333 114.1653333333333 96.0106666666667 116.288C95.7973333333333 116.7146666666667 95.584 117.1413333333333 95.7973333333333 117.7813333333333C96.0106666666667 119.4773333333333 96.64 120.9706666666667 97.7066666666667 122.24C98.3466666666667 123.0933333333333 99.2 123.9466666666667 100.0426666666667 124.5866666666667C100.256 124.8 100.6826666666667 124.8 100.896 125.0133333333333C101.3226666666667 125.2266666666667 101.7493333333334 125.0133333333333 102.176 124.5866666666667C104.7253333333334 122.0266666666667 106.6346666666667 119.0506666666667 107.7013333333334 115.648C108.768 112.8746666666666 109.6213333333334 110.112 110.2613333333334 107.136C110.2613333333334 106.7093333333333 110.048 106.2826666666666 110.048 106.0693333333333C109.6213333333334 105.6426666666666 109.1946666666667 105.216 108.5546666666667 104.7893333333333L105.3546666666667 103.0933333333333C104.7146666666667 102.6666666666666 104.5013333333333 102.4533333333333 104.0853333333333 101.8133333333333C103.872 101.6 103.872 101.3866666666666 103.6586666666667 100.96L103.0186666666667 93.9413333333333C102.8053333333333 92.448 102.1653333333333 91.1786666666667 101.0986666666667 89.8986666666667A5.013333333333333 5.013333333333333 0 0 0 97.4933333333333 88.6186666666667C94.2933333333333 83.9466666666667 89.6213333333333 80.3306666666667 84.2986666666667 78.1973333333333C83.6586666666667 75.6373333333333 82.1653333333333 73.3013333333333 80.256 71.392A53.15199999999999 53.15199999999999 0 0 0 65.3653333333334 61.6A94.69866666666667 94.69866666666667 0 0 1 34.5066666666667 39.0506666666667C32.8 37.1306666666667 30.8906666666667 35.2213333333334 28.768 33.728C27.9146666666667 33.3013333333333 26.848 32.8746666666667 25.9946666666667 32.6613333333333H25.568L24.928 33.3013333333333C24.2986666666667 33.9413333333333 23.872 34.5813333333333 23.4453333333334 35.2213333333333C23.232 35.4346666666667 23.0186666666667 35.648 23.0186666666667 35.8613333333333H22.8053333333334C22.592 35.8613333333333 22.592 35.8613333333333 22.592 35.648L22.3786666666667 35.4346666666666C22.1653333333334 31.808 20.672 28.6293333333333 18.5493333333334 26.0693333333333C17.2693333333334 24.7893333333333 15.7866666666667 24.1493333333333 14.08 23.7226666666666L6.4213333333334 23.5093333333333C4.928 23.3066666666666 3.6586666666667 22.88 2.1653333333334 22.0266666666666C0.672 21.1733333333333 -0.1706666666666 19.68 0.0426666666667 17.984C0.256 14.7946666666666 2.176 12.032 5.3653333333334 10.9653333333333C8.768 9.472 12.384 9.2586666666666 16 10.3253333333333C20.0426666666667 10.9653333333333 23.872 12.4586666666667 27.488 14.592C29.1946666666667 15.8613333333333 30.688 17.1413333333333 31.7546666666667 19.0506666666667C35.1466666666667 23.7333333333334 40.256 27.3493333333333 45.792 28.6293333333333C47.712 29.2693333333333 49.6213333333333 30.336 51.3173333333334 31.8186666666667C53.8773333333334 34.1653333333333 56.8533333333334 36.288 59.616 38.4106666666667L62.176 39.6906666666667C68.9813333333334 42.8906666666667 75.5733333333334 46.496 81.7493333333333 50.9653333333334C86.208 54.1653333333333 91.3173333333333 56.7146666666667 96.64 58.624C101.7493333333333 61.184 106.6346666666667 63.9466666666667 111.5306666666667 66.9226666666667C115.584 69.4826666666667 120.256 70.5493333333334 125.152 70.336C128.3413333333333 69.696 131.104 68.8426666666667 134.08 67.3493333333333C143.0186666666667 63.0933333333333 152.384 59.4773333333333 161.9626666666667 56.928C169.408 55.648 176.4266666666667 52.448 182.3893333333333 47.5626666666667A164.40533333333335 164.40533333333335 0 0 1 209.1946666666667 29.4826666666667C216 25.856 221.7493333333333 19.904 224.9386666666667 12.672C225.152 11.8186666666667 225.5786666666667 11.1786666666667 226.432 10.752C227.072 10.112 228.1386666666667 10.112 228.9813333333333 10.3253333333333C230.2613333333333 10.752 231.5413333333333 11.1786666666667 232.5973333333333 12.032C235.3706666666667 14.3786666666667 238.336 16.288 241.1093333333333 18.4106666666667C244.9386666666667 20.544 248.5546666666667 23.0933333333334 251.744 25.856C253.024 27.136 254.0906666666667 28.2026666666667 254.944 29.696C255.3706666666667 30.1226666666667 255.584 30.7626666666667 255.7973333333333 31.392C256.0106666666666 31.8186666666667 256.0106666666666 32.2453333333334 256.0106666666666 32.672C255.7973333333333 33.0986666666667 255.584 33.312 255.3706666666667 33.5253333333334A3.594666666666667 3.594666666666667 0 0 1 253.2373333333333 34.1653333333333C250.2506666666667 34.1653333333333 247.488 33.312 244.7253333333333 31.8186666666667C244.2986666666667 31.6053333333333 243.872 31.1786666666667 243.4453333333333 30.9653333333334C243.0186666666667 30.5386666666667 242.8053333333333 30.3253333333334 242.1653333333333 30.3253333333334A10.56 10.56 0 0 0 236.4266666666667 30.5386666666667A5.5680000000000005 5.5680000000000005 0 0 0 234.5066666666667 31.6053333333334C234.08 31.8186666666667 233.8666666666667 32.2453333333334 233.6533333333334 32.672V33.312C233.8666666666667 34.1653333333333 233.8666666666667 35.2213333333334 234.08 36.288V36.928C234.08 37.1413333333333 233.8666666666667 37.1413333333333 233.8666666666667 37.3546666666667C233.6533333333334 37.3546666666667 233.6533333333334 37.568 233.6533333333334 37.568H233.44C233.2266666666667 37.3546666666667 233.0133333333333 37.3546666666667 233.0133333333333 37.1413333333333L232.384 36.5013333333334C231.104 35.4346666666667 229.824 34.7946666666667 228.128 34.7946666666667C226.6346666666667 34.7946666666667 224.928 35.2213333333334 223.872 36.288C223.4453333333333 36.5013333333334 223.232 36.7146666666667 223.232 37.1413333333333C221.7386666666667 39.4773333333334 220.0426666666667 41.6 217.92 43.3066666666667L200.4693333333334 57.7706666666667C196.6293333333333 60.1173333333333 193.024 62.6773333333333 189.408 65.4293333333334A26.773333333333333 26.773333333333333 0 0 1 186.6346666666667 67.776C184.7146666666667 69.056 182.592 69.696 180.256 70.5493333333334C178.7626666666667 70.976 177.4826666666667 71.8186666666667 176.4266666666667 72.672A5.4399999999999995 5.4399999999999995 0 0 0 174.72 77.568C173.0133333333333 78.208 171.104 78.848 169.408 79.904A105.344 105.344 0 0 0 154.72 89.056C154.2933333333333 89.2693333333334 154.08 89.696 153.8666666666667 90.1226666666667C153.44 91.1893333333333 153.0133333333334 92.2453333333334 152.8 93.312A9.429333333333334 9.429333333333334 0 0 1 151.5306666666667 96.7146666666667A3.2 3.2 0 0 1 149.6106666666667 98.208L148.3413333333334 98.6346666666667A4.458666666666666 4.458666666666666 0 0 0 145.5680000000001 101.3973333333334C145.1413333333334 102.6773333333334 144.9280000000001 104.16 144.9280000000001 105.44C145.3546666666667 108.416 145.7813333333334 111.1786666666667 146.4213333333334 113.9413333333334A45.728 45.728 0 0 1 141.9626666666667 140.544A10.453333333333333 10.453333333333333 0 0 0 140.6826666666667 144.16C140.2560000000001 147.776 140.6826666666667 151.6053333333334 141.7493333333334 155.008C143.2426666666667 159.6906666666667 144.2986666666667 164.8 144.9386666666667 169.6853333333334C145.3653333333334 175.0186666666667 146.6453333333334 179.904 148.9813333333334 184.5866666666667C149.8346666666667 185.8666666666667 150.4746666666667 187.36 150.9013333333334 189.056C151.9680000000001 193.5253333333334 152.5973333333334 197.984 152.5973333333334 202.6666666666667C152.3840000000001 207.776 153.2373333333334 212.672 155.1573333333334 217.3546666666667C155.3706666666667 217.7813333333334 155.5840000000001 218.208 156.0106666666667 218.6346666666667C156.8533333333334 219.2746666666667 157.7066666666667 219.4773333333334 158.5493333333334 219.904C160.0426666666667 220.3306666666667 161.7493333333334 220.7573333333334 163.0293333333334 221.6106666666667C166.208 224.16 167.9146666666667 227.776 168.1280000000001 231.6053333333334C168.1280000000001 235.648 166.4213333333334 239.4773333333334 163.4453333333334 242.0266666666667A13.333333333333332 13.333333333333332 0 0 1 147.488 244.8C142.3786666666667 241.3866666666667 139.8293333333334 235.4346666666667 140.896 229.6853333333334C141.7493333333334 226.7093333333334 142.6026666666667 223.9466666666667 144.096 220.9706666666667C145.3653333333333 218.4106666666667 145.792 215.648 145.5786666666667 213.0986666666667C145.152 208.192 143.872 203.52 141.7386666666667 199.0506666666667C140.256 195.648 138.976 192.2453333333334 138.336 188.6293333333333A62.61333333333334 62.61333333333334 0 0 0 134.9333333333333 174.7946666666667C134.08 172.0213333333333 132.384 169.8986666666667 130.048 168.2026666666667C129.1946666666667 167.5626666666667 128.128 167.5626666666667 127.2746666666666 167.9893333333333C126.4213333333333 168.416 125.568 168.8426666666667 124.928 169.696L120.0426666666666 174.1546666666667A7.626666666666667 7.626666666666667 0 0 1 114.9333333333333 176.0746666666667A15.573333333333332 15.573333333333332 0 0 1 103.232 169.056A6.72 6.72 0 0 1 102.3786666666666 162.4533333333333C103.232 160.5333333333333 104.2986666666666 158.624 105.152 156.7146666666667C106.0053333333333 155.4346666666667 106.432 153.9413333333333 106.6453333333333 152.2346666666667C106.8586666666666 151.6053333333333 106.432 150.752 106.2186666666666 150.112C105.792 149.472 104.9386666666666 148.832 104.2986666666666 148.6186666666667C103.0186666666666 148.192 101.5253333333333 147.9786666666667 100.256 147.9786666666667C96.4266666666666 142.4533333333333 92.8106666666666 136.928 90.048 130.752C88.3413333333333 127.9786666666667 86.4213333333333 125.2266666666667 84.2986666666666 122.4533333333333C81.0986666666666 117.7706666666667 78.1333333333333 112.672 75.36 107.776C72.5866666666667 104.7893333333333 70.6773333333333 102.4533333333333 68.3413333333333 100.544z" />
    <glyph glyph-name="question-solid"
      unicode="&#xEA0A;"
      horiz-adv-x="256" d="M106.6666666666667 53.3333333333333H138.6666666666667V21.3333333333333H106.6666666666667V53.3333333333333zM128 234.6666666666667C185.0666666666667 232.32 209.92 174.72 176 131.52C167.1466666666667 120.8533333333333 152.8533333333333 113.8133333333333 145.8133333333333 104.8533333333333C138.6666666666667 96 138.6666666666667 85.3333333333333 138.6666666666667 74.6666666666667H106.6666666666667C106.6666666666667 92.48 106.6666666666667 107.52 113.8133333333333 118.1866666666667C120.8533333333333 128.8533333333334 135.1466666666667 135.1466666666667 144 142.1866666666667C169.8133333333333 166.08 163.4133333333333 199.8933333333334 128 202.6666666666667A32 32 0 0 1 96 170.6666666666667H64A64 64 0 0 0 128 234.6666666666667z" />
    <glyph glyph-name="nike"
      unicode="&#xEA0B;"
      horiz-adv-x="256" d="M14.0906666666667 88.384C26.72 65.7173333333334 57.1626666666667 76.032 76.5226666666667 84.736L256 168.736L151.8613333333333 138.7626666666667L78.8373333333333 117.28C64 112.8746666666667 52.0533333333333 113.5146666666667 45.12 119.3173333333334C27.776 133.7173333333334 41.2586666666667 162.176 46.08 170.6666666666667C37.408 160.352 28.928 149.7173333333334 22.0906666666667 138.5493333333334C11.5946666666667 120.5013333333334 6.9653333333333 101.056 14.0906666666667 88.384z" />
    <glyph glyph-name="google-plus-1"
      unicode="&#xEA0C;"
      horiz-adv-x="256" d="M128 224C74.9546666666667 224 32 181.0453333333333 32 128S74.9546666666667 32 128 32S224 74.9546666666667 224 128C224 134.5813333333333 223.296 141.0026666666667 221.9946666666667 147.2L221.504 149.3333333333334H128V117.3333333333334H192C186.912 87.0826666666667 159.712 64 128 64C92.6613333333333 64 64 92.672 64 128C64 163.3386666666667 92.672 192 128 192C144 192 158.5813333333333 186.08 169.8346666666667 176.3733333333333L192.7466666666667 198.8373333333333A95.59466666666667 95.59466666666667 0 0 1 128 224z" />
    <glyph glyph-name="music-solid-1"
      unicode="&#xEA0D;"
      horiz-adv-x="256" d="M128 224V111.4666666666667C121.7066666666667 115.0933333333333 114.4533333333333 117.3333333333334 106.6666666666667 117.3333333333334C83.0933333333333 117.3333333333334 64 98.24 64 74.6666666666667S83.0933333333333 32 106.6666666666667 32S149.3333333333333 51.0933333333334 149.3333333333333 74.6666666666667V181.3333333333334H192V224H128z" />
    <glyph glyph-name="microchip-solid-1"
      unicode="&#xEA0E;"
      horiz-adv-x="256" d="M128 192A64 64 0 0 0 192 128C192 104.32 179.0933333333333 83.6266666666667 160 72.5333333333333V53.3333333333333A10.666666666666666 10.666666666666666 0 0 0 149.3333333333334 42.6666666666667H106.6666666666667A10.666666666666666 10.666666666666666 0 0 0 96 53.3333333333333V72.5333333333333C76.9066666666667 83.6266666666667 64 104.32 64 128A64 64 0 0 0 128 192zM149.3333333333334 32V21.3333333333333A10.666666666666666 10.666666666666666 0 0 0 138.6666666666667 10.6666666666667H117.3333333333334A10.666666666666666 10.666666666666666 0 0 0 106.6666666666667 21.3333333333333V32H149.3333333333334zM213.3333333333334 138.6666666666667H245.3333333333334V117.3333333333333H213.3333333333334V138.6666666666666zM10.6666666666667 138.6666666666667H42.6666666666667V117.3333333333334H10.6666666666667V138.6666666666667zM138.6666666666667 245.3333333333334V213.3333333333334H117.3333333333333V245.3333333333334H138.6666666666667zM52.48 218.6666666666667L75.2 195.84L60.0533333333333 180.8L37.3333333333333 203.4133333333334L52.48 218.6666666666667zM180.8 195.9466666666667L203.4133333333333 218.6666666666667L218.6666666666667 203.4133333333334L195.9466666666667 180.8L180.8 195.9466666666667z" />
    <glyph glyph-name="basketball-ball-solid-1"
      unicode="&#xEA0F;"
      horiz-adv-x="256" d="M24.96 99.9466666666667C31.36 102.2933333333333 37.9733333333333 103.4666666666667 45.0133333333333 103.4666666666667C59.3066666666667 103.4666666666667 71.7866666666667 98.9866666666667 82.4533333333333 90.0266666666667L48.96 56.5333333333334A113.17333333333335 113.17333333333335 0 0 0 24.96 99.9466666666667zM165.9733333333333 151.4666666666667C186.9866666666667 135.7866666666667 209.7066666666667 131.9466666666667 234.0266666666667 139.9466666666667C234.3466666666667 137.7066666666667 234.6666666666667 133.6533333333333 234.6666666666667 128C234.6666666666667 117.0133333333333 232 104.7466666666667 226.9866666666666 91.2C221.9733333333333 77.76 215.7866666666666 66.88 208.5333333333333 58.6666666666667L141.0133333333333 125.9733333333333L165.9733333333333 151.4666666666667zM93.5466666666667 78.5066666666667C104.8533333333333 62.1866666666667 107.2 44.3733333333333 100.48 24.96C85.3333333333333 29.3333333333333 71.7866666666667 36.16 60.48 45.5466666666667L93.5466666666667 78.5066666666667zM130.0266666666667 114.9866666666667L197.3333333333333 47.4666666666666C174.1866666666667 27.2 146.9866666666667 18.6666666666666 116.0533333333333 21.9733333333333C118.2933333333333 29.0133333333333 119.4666666666667 36.6933333333333 119.4666666666667 45.0133333333333C119.4666666666667 51.6266666666666 117.9733333333333 59.4133333333333 114.9866666666666 68.2666666666666C112 77.12 108.48 84.3733333333333 104.5333333333333 90.0266666666666L130.0266666666667 114.9866666666666zM93.9733333333333 101.3333333333333A71.41333333333333 71.41333333333333 0 0 1 59.52 118.2933333333334C46.5066666666667 120.7466666666667 34.0266666666667 120 21.9733333333333 115.9466666666667C21.6533333333333 118.2933333333334 21.3333333333333 122.3466666666667 21.3333333333333 128C21.3333333333333 138.9866666666667 24 151.2533333333333 29.0133333333333 164.8C34.0266666666667 178.24 40.2133333333333 189.12 47.4666666666667 197.3333333333334L118.5066666666667 125.9733333333334L93.9733333333333 101.3333333333334zM165.9733333333333 173.5466666666667C151.68 191.1466666666667 148.3733333333333 210.3466666666667 156.0533333333334 231.04C162.6666666666667 229.3333333333333 170.24 226.1333333333334 178.7733333333334 221.2266666666667C187.2 216.4266666666667 194.1333333333333 211.6266666666667 199.4666666666667 207.04L165.9733333333333 173.5466666666667zM231.04 155.9466666666667C224.64 153.7066666666667 218.0266666666667 152.5333333333334 210.9866666666667 152.5333333333334C199.36 152.5333333333334 188.16 155.9466666666667 177.4933333333333 162.9866666666667L210.4533333333333 195.52C219.84 183.7866666666667 226.6666666666667 170.6666666666667 231.04 155.9466666666667zM130.0266666666667 137.4933333333334L58.6666666666667 208.5333333333333C81.8133333333333 228.8 109.0133333333333 237.3333333333334 140.0533333333333 234.0266666666667C137.7066666666667 226.9866666666667 136.5333333333333 219.3066666666667 136.5333333333333 210.9866666666667C136.5333333333333 203.3066666666667 138.24 194.6666666666667 141.76 184.96C145.28 175.36 149.3333333333333 167.68 154.6666666666666 162.0266666666667L130.0266666666667 137.4933333333334z" />
    <glyph glyph-name="information"
      unicode="&#xEA10;"
      horiz-adv-x="256" d="M138.6666666666667 160H117.3333333333333V181.3333333333334H138.6666666666667V160zM138.6666666666667 74.6666666666667H117.3333333333333V138.6666666666667H138.6666666666667V74.6666666666667zM128 234.6666666666667A106.66666666666666 106.66666666666666 0 1 1 128 21.3333333333333A106.66666666666666 106.66666666666666 0 0 1 128 234.6666666666667z" />
    <glyph glyph-name="book"
      unicode="&#xEA11;"
      horiz-adv-x="256" d="M186.6666666666667 103.1466666666667C195.0933333333333 103.1466666666667 204.0533333333333 102.2933333333334 213.3333333333333 100.5866666666667V84.5866666666667C206.72 86.2933333333334 197.76 87.1466666666667 186.6666666666667 87.1466666666667C166.4 87.1466666666667 150.5066666666667 83.6266666666667 138.6666666666667 76.5866666666667V94.6133333333334C151.1466666666667 100.2666666666667 167.1466666666667 103.1466666666667 186.6666666666667 103.1466666666667zM138.6666666666667 123.0933333333333C152.4266666666667 128.7466666666667 168.4266666666667 131.52 186.6666666666667 131.52C195.0933333333333 131.52 204.0533333333333 130.7733333333333 213.3333333333333 129.0666666666667V113.0666666666667C206.72 114.7733333333334 197.76 115.6266666666667 186.6666666666667 115.6266666666667C166.4 115.6266666666667 150.5066666666667 112 138.6666666666667 105.0666666666667V123.0933333333333zM186.6666666666667 144C166.4 144 150.5066666666667 140.5866666666667 138.6666666666667 133.3333333333333V151.04C151.7866666666667 157.0133333333333 167.7866666666667 160 186.6666666666667 160C195.0933333333333 160 204.0533333333333 159.1466666666667 213.3333333333333 157.5466666666667V141.0133333333333C205.44 143.04 196.3733333333333 144 186.6666666666667 144zM224 58.6666666666667V181.3333333333334C212.9066666666667 184.8533333333334 200.4266666666667 186.6666666666667 186.6666666666667 186.6666666666667C164.8 186.6666666666667 145.28 181.3333333333334 128 170.6666666666667V48C145.28 58.6666666666667 164.8 64 186.6666666666667 64C199.36 64 211.84 62.2933333333333 224 58.6666666666667zM186.6666666666667 208C211.7333333333334 208 231.36 202.6666666666667 245.3333333333334 192V36.6933333333333C245.3333333333334 35.4133333333333 244.8 34.1333333333333 243.6266666666667 32.96C242.4533333333333 32 241.1733333333334 31.1466666666667 240 31.1466666666667C238.8266666666667 31.1466666666667 237.9733333333334 31.36 237.3333333333334 31.68C223.68 39.04 206.72 42.6666666666667 186.6666666666667 42.6666666666667C164.8 42.6666666666667 145.28 37.3333333333333 128 26.6666666666667C113.7066666666667 37.3333333333333 94.1866666666667 42.6666666666667 69.3333333333334 42.6666666666667C51.6266666666667 42.6666666666667 34.6666666666667 38.8266666666667 18.6666666666667 31.2533333333334C18.3466666666667 31.1466666666667 17.92 31.1466666666667 17.3866666666667 30.9333333333334C16.96 30.8266666666667 16.5333333333334 30.72 16 30.72C14.8266666666667 30.72 13.5466666666667 31.1466666666667 12.3733333333334 32A5.066666666666666 5.066666666666666 0 0 0 10.6666666666667 35.7333333333334V192C24.96 202.6666666666667 44.5866666666667 208 69.3333333333334 208C94.1866666666667 208 113.7066666666667 202.6666666666667 128 192C142.2933333333334 202.6666666666667 161.8133333333334 208 186.6666666666667 208z" />
    <glyph glyph-name="futbol-1"
      unicode="&#xEA12;"
      horiz-adv-x="256" d="M42.6666666666667 213.3333333333334C30.8266666666667 213.3333333333334 21.3333333333333 203.84 21.3333333333333 192V64A21.333333333333332 21.333333333333332 0 0 1 42.6666666666667 42.6666666666667H213.3333333333333A21.333333333333332 21.333333333333332 0 0 1 234.6666666666667 64V192A21.333333333333332 21.333333333333332 0 0 1 213.3333333333333 213.3333333333333H42.6666666666667zM42.6666666666667 192H117.3333333333333V169.28C98.56 164.3733333333333 85.3333333333333 147.4133333333334 85.3333333333333 128A42.773333333333326 42.773333333333326 0 0 1 117.3333333333333 86.72V64H42.6666666666667V85.3333333333333H74.6666666666667V170.6666666666667H42.6666666666667V192zM138.6666666666667 192H213.3333333333333V170.6666666666667H181.3333333333333V85.3333333333333H213.3333333333333V64H138.6666666666667V86.72C157.44 91.6266666666667 170.6666666666667 108.5866666666667 170.6666666666667 128A42.773333333333326 42.773333333333326 0 0 1 138.6666666666667 169.28V192zM42.6666666666667 149.3333333333334H53.3333333333333V106.6666666666667H42.6666666666667V149.3333333333334zM202.6666666666667 149.3333333333334H213.3333333333333V106.6666666666667H202.6666666666667V149.3333333333334zM138.6666666666667 146.4533333333334C145.28 142.6133333333334 149.3333333333333 135.5733333333334 149.3333333333333 128S145.28 113.3866666666667 138.6666666666667 109.5466666666667V146.4533333333334zM117.3333333333333 146.4533333333334V109.5466666666667C110.72 113.3866666666667 106.6666666666667 120.4266666666667 106.6666666666667 128S110.72 142.6133333333334 117.3333333333333 146.4533333333334z" />
    <glyph glyph-name="file-image"
      unicode="&#xEA13;"
      horiz-adv-x="256" d="M138.6666666666667 160H197.3333333333333L138.6666666666667 218.6666666666667V160zM64 234.6666666666667H149.3333333333333L213.3333333333333 170.6666666666667V42.6666666666667A21.333333333333332 21.333333333333332 0 0 0 192 21.3333333333333H64A21.333333333333332 21.333333333333332 0 0 0 42.6666666666667 42.6666666666667V213.3333333333334C42.6666666666667 225.1733333333334 52.16 234.6666666666667 64 234.6666666666667zM64 42.6666666666667H192V128L149.3333333333334 85.3333333333333L128 106.6666666666667L64 42.6666666666667zM85.3333333333333 160A21.333333333333332 21.333333333333332 0 1 1 85.3333333333333 117.3333333333334A21.333333333333332 21.333333333333332 0 0 1 85.3333333333333 160z" />
    <glyph glyph-name="female-solid-1"
      unicode="&#xEA14;"
      horiz-adv-x="256" d="M128 213.3333333333334A64 64 0 0 0 192 149.3333333333334C192 117.6533333333333 168.96 91.3066666666667 138.6666666666667 86.1866666666667V64H160V42.6666666666667H138.6666666666667V21.3333333333333H117.3333333333334V42.6666666666667H96V64H117.3333333333333V86.1866666666667C87.04 91.3066666666667 64 117.6533333333333 64 149.3333333333333A64 64 0 0 0 128 213.3333333333333zM128 192A42.666666666666664 42.666666666666664 0 1 1 128 106.6666666666667A42.666666666666664 42.666666666666664 0 0 1 128 192z" />
    <glyph glyph-name="facebook-f-1"
      unicode="&#xEA15;"
      horiz-adv-x="256" d="M162.6986666666667 234.6666666666667C131.872 234.6666666666667 113.7813333333333 218.8053333333334 113.7813333333333 182.656V150.8586666666667H74.6666666666667V112.7573333333334H113.7813333333333V21.3333333333333H152.8853333333333V112.7573333333334H184.1813333333333L192 150.8586666666667H152.8853333333333V176.2133333333334C152.8853333333333 189.8346666666667 157.4506666666667 196.576 170.5706666666667 196.576H192V233.1093333333333C188.288 233.5893333333334 177.4933333333334 234.6666666666667 162.6986666666667 234.6666666666667z" />
    <glyph glyph-name="eye"
      unicode="&#xEA16;"
      horiz-adv-x="256" d="M128 160A32 32 0 1 1 128 96A32 32 0 0 1 128 160zM128 74.6666666666667A53.33333333333333 53.33333333333333 0 1 0 128 181.3333333333334A53.33333333333333 53.33333333333333 0 0 0 128 74.6666666666667zM128 208C74.6666666666667 208 29.12 174.8266666666667 10.6666666666667 128C29.12 81.1733333333334 74.6666666666667 48 128 48S226.88 81.1733333333334 245.3333333333333 128C226.88 174.8266666666667 181.3333333333333 208 128 208z" />
    <glyph glyph-name="comment-1"
      unicode="&#xEA17;"
      horiz-adv-x="256" d="M96 21.3333333333333A10.666666666666666 10.666666666666666 0 0 0 85.3333333333333 32V64H42.6666666666667A21.333333333333332 21.333333333333332 0 0 0 21.3333333333333 85.3333333333333V213.3333333333334A21.333333333333332 21.333333333333332 0 0 0 42.6666666666667 234.6666666666667H213.3333333333333A21.333333333333332 21.333333333333332 0 0 0 234.6666666666667 213.3333333333334V85.3333333333333A21.333333333333332 21.333333333333332 0 0 0 213.3333333333333 64H148.2666666666667L108.8 24.4266666666667C106.6666666666666 22.4 104 21.3333333333333 101.3333333333333 21.3333333333333H96zM53.3333333333333 202.6666666666667V181.3333333333334H202.6666666666666V202.6666666666667H53.3333333333333zM53.3333333333333 160V138.6666666666667H138.6666666666667V160H53.3333333333333zM53.3333333333333 117.3333333333334V96H160V117.3333333333334H53.3333333333333z" />
    <glyph glyph-name="check-solid-1"
      unicode="&#xEA18;"
      horiz-adv-x="256" d="M219.7013333333334 178.9226666666667L91.7013333333333 50.9226666666667L33.0346666666667 109.5893333333333L48.0746666666667 124.6293333333333L91.7013333333333 81.1093333333333L204.6613333333334 193.9626666666667L219.7013333333334 178.9226666666667z" />
    <glyph glyph-name="camera"
      unicode="&#xEA19;"
      horiz-adv-x="256" d="M42.6666666666667 213.3333333333334H74.6666666666667L96 234.6666666666667H160L181.3333333333334 213.3333333333334H213.3333333333334A21.333333333333332 21.333333333333332 0 0 0 234.6666666666667 192V64A21.333333333333332 21.333333333333332 0 0 0 213.3333333333334 42.6666666666667H42.6666666666667A21.333333333333332 21.333333333333332 0 0 0 21.3333333333333 64V192A21.333333333333332 21.333333333333332 0 0 0 42.6666666666667 213.3333333333333zM128 181.3333333333334A53.33333333333333 53.33333333333333 0 1 1 128 74.6666666666667A53.33333333333333 53.33333333333333 0 0 1 128 181.3333333333334zM128 160A32 32 0 1 0 128 96A32 32 0 0 0 128 160z" />
    <glyph glyph-name="calendar"
      unicode="&#xEA1A;"
      horiz-adv-x="256" d="M202.6666666666667 53.3333333333333H53.3333333333333V170.6666666666667H202.6666666666666V53.3333333333333zM170.6666666666667 245.3333333333334V224H85.3333333333333V245.3333333333334H64V224H53.3333333333333C41.4933333333333 224 32 214.5066666666667 32 202.6666666666667V53.3333333333334A21.333333333333332 21.333333333333332 0 0 1 53.3333333333333 32H202.6666666666666A21.333333333333332 21.333333333333332 0 0 1 224 53.3333333333334V202.6666666666667A21.333333333333332 21.333333333333332 0 0 1 202.6666666666666 224H192V245.3333333333334H170.6666666666666zM181.3333333333333 128H128V74.6666666666667H181.3333333333333V128z" />
    <glyph glyph-name="bookmark"
      unicode="&#xEA1B;"
      horiz-adv-x="256" d="M181.3333333333333 224H74.6666666666667A21.333333333333332 21.333333333333332 0 0 1 53.3333333333333 202.6666666666667V32L128 64L202.6666666666666 32V202.6666666666667A21.333333333333332 21.333333333333332 0 0 1 181.3333333333333 224z" />
    <glyph glyph-name="vestuario"
      unicode="&#xEA1C;"
      horiz-adv-x="256" d="M170.6666666666667 32H85.3333333333333A10.666666666666666 10.666666666666666 0 0 0 74.6666666666667 42.6666666666667V127.2533333333333L60.8 116.5866666666667A10.623999999999999 10.623999999999999 0 0 0 45.76 116.5866666666667L15.5733333333333 146.24A10.623999999999999 10.623999999999999 0 0 0 15.5733333333333 161.28L78.2933333333333 224H96C96 212.2666666666667 110.2933333333333 202.6666666666667 128 202.6666666666667S160 212.2666666666667 160 224H177.7066666666667L240.4266666666667 161.28C244.5866666666667 157.12 244.5866666666667 150.4 240.4266666666667 146.24L210.24 116.0533333333334C206.08 112 199.36 112 195.2 116.0533333333334L181.3333333333333 126.72V42.6666666666667A10.666666666666666 10.666666666666666 0 0 0 170.6666666666667 32z" />
    <glyph glyph-name="arrow-up"
      unicode="&#xEA1D;"
      horiz-adv-x="256" d="M138.6666666666667 42.6666666666667H117.3333333333333V170.6666666666667L58.6666666666667 112L43.52 127.1466666666667L128 211.6266666666667L212.48 127.1466666666667L197.3333333333333 112L138.6666666666667 170.6666666666667V42.6666666666667z" />
    <glyph glyph-name="angle-down-solid"
      unicode="&#xEA1E;"
      horiz-adv-x="256" d="M79.04 164.48L128 115.52L176.96 164.48L192 149.3333333333334L128 85.3333333333333L64 149.3333333333334L79.04 164.48z" />
    <glyph glyph-name="angle-up-solid"
      unicode="&#xEA1F;"
      horiz-adv-x="256" d="M79.04 91.6266666666667L128 140.48L176.96 91.6266666666667L192 106.6666666666667L128 170.6666666666667L64 106.6666666666667L79.04 91.6266666666667z" />
    <glyph glyph-name="angle-right-solid"
      unicode="&#xEA20;"
      horiz-adv-x="256" d="M42.6666666666667 138.6666666666667V117.3333333333334H170.6666666666667L112 58.6666666666667L127.1466666666667 43.52L211.6266666666667 128L127.1466666666667 212.48L112 197.3333333333334L170.6666666666667 138.6666666666667H42.6666666666667z" />
    <glyph glyph-name="angle-left-solid"
      unicode="&#xEA21;"
      horiz-adv-x="256" d="M213.3333333333333 138.6666666666667V117.3333333333334H85.3333333333333L144 58.6666666666667L128.8533333333333 43.52L44.3733333333333 128L128.8533333333333 212.48L144 197.3333333333334L85.3333333333333 138.6666666666667H213.3333333333333z" />
    <glyph glyph-name="alert"
      unicode="&#xEA22;"
      horiz-adv-x="256" d="M138.6666666666667 106.6666666666667H117.3333333333333V160H138.6666666666667V106.6666666666667zM138.6666666666667 64H117.3333333333333V85.3333333333334H138.6666666666667V64zM10.6666666666667 32H245.3333333333333L128 234.6666666666667L10.6666666666667 32z" />
    <glyph glyph-name="yoga"
      unicode="&#xEA23;"
      horiz-adv-x="256" d="M138.6666666666667 234.6666666666667A21.333333333333332 21.333333333333332 0 1 1 138.6666666666667 192C150.5066666666667 192 160 201.4933333333334 160 213.3333333333333A21.333333333333332 21.333333333333332 0 0 1 138.6666666666667 234.6666666666667zM42.6666666666667 181.3333333333334V160H106.6666666666667V96L52.5866666666667 41.92L67.6266666666667 26.6666666666667L139.3066666666667 98.4533333333334L181.3333333333333 73.28V32H202.6666666666667V79.2533333333333C202.6666666666667 83.0933333333333 200.7466666666667 86.5066666666667 197.3333333333333 88.4266666666667L160 110.9333333333333V160H224V181.3333333333334H42.6666666666667z" />
    <glyph glyph-name="team"
      unicode="&#xEA24;"
      horiz-adv-x="256" d="M128 197.3333333333334A37.33333333333334 37.33333333333334 0 1 0 128 122.6666666666667A37.33333333333334 37.33333333333334 0 0 0 128 197.3333333333334zM53.3333333333333 170.6666666666667C59.3066666666667 170.6666666666667 64.8533333333333 169.0666666666667 69.6533333333333 166.1866666666667C68.0533333333333 150.9333333333333 72.5333333333333 135.7866666666667 81.7066666666667 123.9466666666667A31.967999999999996 31.967999999999996 0 0 0 21.3333333333333 138.6666666666667A32 32 0 0 0 53.3333333333333 170.6666666666667zM202.6666666666666 170.6666666666667A32 32 0 0 0 202.6666666666666 106.6666666666667C190.2933333333333 106.6666666666667 179.6266666666666 113.7066666666667 174.2933333333333 123.9466666666667A59.050666666666665 59.050666666666665 0 0 1 186.3466666666666 166.1866666666667C191.1466666666667 169.0666666666667 196.6933333333333 170.6666666666667 202.6666666666666 170.6666666666667zM58.6666666666667 61.3333333333333C58.6666666666667 83.4133333333334 89.7066666666667 101.3333333333333 128 101.3333333333333S197.3333333333333 83.4133333333334 197.3333333333333 61.3333333333333V42.6666666666667H58.6666666666667V61.3333333333333zM0 42.6666666666667V58.6666666666667C0 73.4933333333333 20.16 85.9733333333334 47.4666666666667 89.6C41.1733333333333 82.3466666666667 37.3333333333333 72.32 37.3333333333333 61.3333333333334V42.6666666666667H0zM256 42.6666666666667H218.6666666666667V61.3333333333333C218.6666666666667 72.32 214.8266666666667 82.3466666666667 208.5333333333334 89.6C235.8400000000001 85.9733333333334 256 73.4933333333334 256 58.6666666666667V42.6666666666667z" />
    <glyph glyph-name="wear"
      unicode="&#xEA25;"
      horiz-adv-x="256" d="M224 170.6666666666667H216.5333333333333L216 170.9866666666667C193.4933333333334 172.3733333333333 174.72 179.52 165.6533333333333 189.5466666666667L149.3333333333333 181.3333333333334C148.8 180.2666666666667 148.16 179.3066666666667 147.6266666666666 178.3466666666667C155.2 171.84 160 163.7333333333334 160 154.6666666666667C160 151.1466666666667 159.04 147.84 157.76 144.5333333333334L137.8133333333333 164.48C135.4666666666667 161.8133333333333 133.0133333333333 159.2533333333334 130.3466666666666 156.9066666666667L152 135.2533333333334C149.76 132.5866666666667 147.2 130.24 144 128L121.92 150.2933333333334C118.8266666666667 148.16 115.7333333333333 146.3466666666667 112.5333333333333 144.5333333333334L134.1866666666667 122.6666666666667C130.6666666666666 121.28 126.8266666666667 120.1066666666667 122.6666666666667 119.2533333333334L102.2933333333333 139.6266666666667C98.6666666666666 138.1333333333334 95.04 136.7466666666667 91.3066666666666 135.5733333333334L109.44 117.3333333333334H106.6666666666667C90.6666666666667 117.3333333333334 76.8 122.2400000000001 66.9866666666667 129.9200000000001C58.24 128.5333333333334 49.92 128.0000000000001 42.6666666666667 128.0000000000001C21.3333333333333 128.0000000000001 21.3333333333333 96.0000000000001 21.3333333333333 96.0000000000001C21.3333333333333 84.1600000000001 30.8266666666667 74.6666666666667 42.6666666666667 74.6666666666667V64.0000000000001C42.6666666666667 58.1333333333334 47.4666666666667 53.3333333333334 53.3333333333333 53.3333333333334S64 58.1333333333334 64 64.0000000000001V74.6666666666667H74.6666666666667V64.0000000000001C74.6666666666667 58.1333333333334 79.4666666666667 53.3333333333334 85.3333333333333 53.3333333333334S96 58.1333333333334 96 64.0000000000001V74.6666666666667H106.6666666666667V64.0000000000001C106.6666666666667 58.1333333333334 111.4666666666667 53.3333333333334 117.3333333333334 53.3333333333334S128 58.1333333333334 128 64.0000000000001V74.6666666666667H160V64.0000000000001C160 58.1333333333334 164.8 53.3333333333334 170.6666666666667 53.3333333333334S181.3333333333333 58.1333333333334 181.3333333333333 64.0000000000001V74.6666666666667H192V64.0000000000001C192 58.1333333333334 196.8 53.3333333333334 202.6666666666666 53.3333333333334S213.3333333333333 58.1333333333334 213.3333333333333 64.0000000000001V74.6666666666667H224S234.6666666666666 74.6666666666667 234.6666666666666 122.6666666666667C234.6666666666667 160 224 170.6666666666667 224 170.6666666666667z" />
    <glyph glyph-name="vert_dots"
      unicode="&#xEA26;"
      horiz-adv-x="256" d="M128 85.3333333333333A21.333333333333332 21.333333333333332 0 1 0 128 42.6666666666667A21.333333333333332 21.333333333333332 0 0 0 128 85.3333333333333zM128 149.3333333333334A21.333333333333332 21.333333333333332 0 1 0 128 106.6666666666667A21.333333333333332 21.333333333333332 0 0 0 128 149.3333333333334zM128 213.3333333333334A21.333333333333332 21.333333333333332 0 1 0 128 170.6666666666667A21.333333333333332 21.333333333333332 0 0 0 128 213.3333333333334z" />
    <glyph glyph-name="thumbs-up-1"
      unicode="&#xEA27;"
      horiz-adv-x="256" d="M245.3333333333333 149.3333333333334A21.333333333333332 21.333333333333332 0 0 1 224 170.6666666666667H156.5866666666667L166.8266666666667 219.4133333333334C167.04 220.48 167.1466666666667 221.6533333333333 167.1466666666667 222.8266666666667C167.1466666666667 227.2 165.3333333333333 231.2533333333334 162.4533333333333 234.1333333333334L151.1466666666667 245.3333333333334L80.96 175.1466666666667C77.0133333333333 171.2 74.6666666666667 165.8666666666667 74.6666666666667 160V53.3333333333333A21.333333333333332 21.333333333333332 0 0 1 96 32H192C200.8533333333333 32 208.4266666666667 37.3333333333333 211.6266666666667 45.0133333333333L243.84 120.2133333333333C244.8 122.6666666666666 245.3333333333334 125.2266666666666 245.3333333333334 128V149.3333333333333zM10.6666666666667 32H53.3333333333333V160H10.6666666666667V32z" />
    <glyph glyph-name="user-1"
      unicode="&#xEA28;"
      horiz-adv-x="256" d="M128 213.3333333333334A42.666666666666664 42.666666666666664 0 1 0 128 128A42.666666666666664 42.666666666666664 0 0 0 128 213.3333333333333zM128 106.6666666666667C175.1466666666667 106.6666666666667 213.3333333333333 87.5733333333334 213.3333333333333 64V42.6666666666667H42.6666666666667V64C42.6666666666667 87.5733333333334 80.8533333333333 106.6666666666667 128 106.6666666666667z" />
    <glyph glyph-name="star-empty"
      unicode="&#xEA29;"
      horiz-adv-x="256" d="M128 66.6666666666667L62.1653333333333 32.0533333333333L74.7413333333333 105.3653333333334L21.408 157.28L95.008 167.9466666666667L127.9253333333333 234.6453333333334L160.8426666666667 167.9466666666667L234.4426666666667 157.28L181.1093333333333 105.3653333333334L193.6853333333333 32.0533333333333L128 66.6666666666667z" />
    <glyph glyph-name="treino"
      unicode="&#xEA2A;"
      horiz-adv-x="256" d="M219.4133333333333 97.4933333333333L234.6666666666667 112.7466666666667L219.4133333333333 128L181.3333333333333 89.92L89.92 181.3333333333334L128 219.4133333333333L112.7466666666667 234.6666666666667L97.4933333333333 219.4133333333333L82.24 234.6666666666667L59.4133333333333 211.84L44.16 227.0933333333334L28.9066666666667 211.84L44.16 196.5866666666667L21.3333333333333 173.76L36.5866666666667 158.5066666666667L21.3333333333333 143.2533333333333L36.5866666666667 128L74.6666666666667 166.08L166.08 74.6666666666667L128 36.5866666666667L143.2533333333333 21.3333333333333L158.5066666666667 36.5866666666667L173.76 21.3333333333333L196.5866666666667 44.16L211.84 28.9066666666667L227.0933333333333 44.16L211.84 59.4133333333334L234.6666666666667 82.24L219.4133333333333 97.4933333333333z" />
    <glyph glyph-name="share-square-1"
      unicode="&#xEA2B;"
      horiz-adv-x="256" d="M224 128L149.3333333333334 202.6666666666667V160C74.6666666666667 149.3333333333334 42.6666666666667 96 32 42.6666666666667C58.6666666666667 80 96 97.0666666666667 149.3333333333333 97.0666666666667V53.3333333333333L224 128z" />
    <glyph glyph-name="times-solid-1"
      unicode="&#xEA2C;"
      horiz-adv-x="256" d="M202.6666666666667 187.6266666666667L187.6266666666667 202.6666666666667L128 143.04L68.3733333333333 202.6666666666667L53.3333333333333 187.6266666666667L112.96 128L53.3333333333333 68.3733333333333L68.3733333333333 53.3333333333333L128 112.96L187.6266666666667 53.3333333333333L202.6666666666667 68.3733333333333L143.04 128L202.6666666666667 187.6266666666667z" />
    <glyph glyph-name="facebook-f-1-5"
      unicode="&#xEA2D;"
      horiz-adv-x="256" d="M162.6986666666667 234.6666666666667C131.872 234.6666666666667 113.7813333333333 218.8053333333334 113.7813333333333 182.656V150.8586666666667H74.6666666666667V112.7573333333334H113.7813333333333V21.3333333333333H152.8853333333333V112.7573333333334H184.1813333333333L192 150.8586666666667H152.8853333333333V176.2133333333334C152.8853333333333 189.8346666666667 157.4506666666667 196.576 170.5706666666667 196.576H192V233.1093333333333C188.288 233.5893333333334 177.4933333333334 234.6666666666667 162.6986666666667 234.6666666666667z" />
    <glyph glyph-name="google-plus-1-5"
      unicode="&#xEA2E;"
      horiz-adv-x="256" d="M128 224C74.9546666666667 224 32 181.0453333333333 32 128S74.9546666666667 32 128 32S224 74.9546666666667 224 128C224 134.5813333333333 223.296 141.0026666666667 221.9946666666667 147.2L221.504 149.3333333333334H128V117.3333333333334H192C186.912 87.0826666666667 159.712 64 128 64C92.6613333333333 64 64 92.672 64 128C64 163.3386666666667 92.672 192 128 192C144 192 158.5813333333333 186.08 169.8346666666667 176.3733333333333L192.7466666666667 198.8373333333333A95.59466666666667 95.59466666666667 0 0 1 128 224z" />
    <glyph glyph-name="email"
      unicode="&#xEA2F;"
      horiz-adv-x="256" d="M213.3333333333333 170.6666666666667L128 117.3333333333334L42.6666666666667 170.6666666666667V192L128 138.6666666666667L213.3333333333333 192V170.6666666666667zM213.3333333333333 213.3333333333334H42.6666666666667C30.8266666666667 213.3333333333334 21.3333333333333 203.84 21.3333333333333 192V64A21.333333333333332 21.333333333333332 0 0 1 42.6666666666667 42.6666666666667H213.3333333333333A21.333333333333332 21.333333333333332 0 0 1 234.6666666666667 64V192A21.333333333333332 21.333333333333332 0 0 1 213.3333333333333 213.3333333333333z" />
    <glyph glyph-name="telegram"
      unicode="&#xEA30;"
      horiz-adv-x="266.6666666666667" d="M109.6533333333333 57.0666666666667L112.64 102.1866666666667L194.56 176C198.1866666666667 179.3066666666667 193.8133333333333 180.9066666666667 189.0133333333333 178.0266666666667L87.8933333333333 114.1333333333333L44.16 128C34.7733333333333 130.6666666666667 34.6666666666667 137.1733333333334 46.2933333333333 141.8666666666667L216.64 207.5733333333333C224.4266666666667 211.0933333333333 231.8933333333333 205.6533333333333 228.9066666666667 193.7066666666667L199.8933333333333 57.0666666666667C197.8666666666667 47.36 192 45.0133333333334 183.8933333333333 49.4933333333334L139.7333333333333 82.1333333333333L118.5066666666667 61.5466666666667C116.0533333333333 59.0933333333333 114.0266666666667 57.0666666666667 109.6533333333333 57.0666666666667z" />
    <glyph glyph-name="whatsapp"
      unicode="&#xEA31;"
      horiz-adv-x="256" d="M128.4266666666667 234.6666666666667C70.1866666666667 234.6666666666667 22.72 187.2 22.72 128.96C22.72 110.2933333333334 27.6266666666667 92.16 36.8 76.16L21.8666666666667 21.3333333333333L77.8666666666667 36.0533333333333C93.3333333333333 27.6266666666667 110.72 23.1466666666667 128.4266666666667 23.1466666666667C186.6666666666667 23.1466666666667 234.1333333333334 70.6133333333334 234.1333333333334 128.8533333333334C234.1333333333334 157.12 223.1466666666667 183.68 203.2 203.6266666666667A104.704 104.704 0 0 1 128.4266666666667 234.6666666666667zM128.5333333333333 216.8533333333334C152 216.8533333333334 173.9733333333333 207.68 190.6133333333333 191.04A87.73333333333332 87.73333333333332 0 0 0 216.32 128.8533333333334C216.32 80.4266666666667 176.8533333333333 41.0666666666667 128.4266666666666 41.0666666666667C112.64 41.0666666666667 97.1733333333333 45.2266666666667 83.7333333333333 53.3333333333333L80.5333333333333 55.1466666666667L47.2533333333333 46.4L56.1066666666666 78.8266666666667L53.9733333333333 82.24A87.33866666666667 87.33866666666667 0 0 0 40.5333333333333 128.96C40.64 177.3866666666667 80 216.8533333333333 128.5333333333333 216.8533333333333zM90.9866666666667 177.8133333333333C89.28 177.8133333333333 86.4 177.1733333333334 83.9466666666667 174.5066666666667C81.6 171.84 74.6666666666666 165.3333333333333 74.6666666666666 152.4266666666667C74.6666666666666 139.4133333333333 84.16 126.9333333333333 85.3333333333333 125.12C86.8266666666667 123.3066666666667 104.1066666666667 96.64 130.6666666666666 85.3333333333333C136.96 82.4533333333334 141.8666666666666 80.8533333333334 145.7066666666666 79.68C152 77.6533333333333 157.76 77.9733333333333 162.3466666666666 78.6133333333334C167.4666666666667 79.36 177.92 85.0133333333334 180.16 91.2C182.4 97.3866666666667 182.4 102.6133333333334 181.76 103.7866666666667C181.0133333333333 104.8533333333334 179.3066666666666 105.4933333333334 176.64 106.6666666666667C173.9733333333333 108.16 160.96 114.56 158.6133333333333 115.4133333333334C156.16 116.2666666666667 154.6666666666666 116.6933333333334 152.64 114.1333333333334C150.9333333333333 111.4666666666667 145.8133333333333 105.4933333333333 144.32 103.7866666666667C142.72 101.9733333333334 141.2266666666666 101.76 138.6666666666666 103.04C135.8933333333333 104.4266666666667 127.36 107.2 117.3333333333333 116.16C109.44 123.2 104.2133333333333 131.84 102.6133333333333 134.5066666666667C101.3333333333333 137.0666666666667 102.5066666666666 138.6666666666667 103.7866666666666 139.84C104.96 141.0133333333334 106.6666666666666 142.9333333333333 107.7333333333333 144.5333333333334C109.12 146.0266666666667 109.5466666666666 147.2 110.4 148.9066666666667C111.2533333333333 150.72 110.8266666666666 152.2133333333334 110.1866666666666 153.4933333333334C109.5466666666666 154.6666666666667 104.2133333333333 167.8933333333334 101.9733333333333 173.12C99.84 178.24 97.7066666666666 177.6 96 177.7066666666667C94.5066666666666 177.7066666666667 92.8 177.8133333333333 90.9866666666666 177.8133333333333z" />
    <glyph glyph-name="share-variant"
      unicode="&#xEA32;"
      horiz-adv-x="256" d="M192 84.48C183.8933333333334 84.48 176.64 81.28 171.0933333333333 76.2666666666667L95.04 120.5333333333334C95.5733333333333 122.9866666666667 96 125.44 96 128C96 130.56 95.5733333333333 133.0133333333334 95.04 135.4666666666667L170.24 179.3066666666667A31.861333333333327 31.861333333333327 0 0 1 214.624 180.0426666666667A32 32 0 1 1 160 202.6666666666667C160 200.1066666666667 160.4266666666667 197.6533333333333 160.96 195.2L85.76 151.36A31.861333333333327 31.861333333333327 0 0 1 41.376 150.624A32 32 0 0 1 64 96C72.4266666666667 96 80 99.3066666666667 85.76 104.64L161.7066666666667 60.3733333333333C161.1733333333333 58.1333333333333 160.8533333333333 55.7866666666667 160.8533333333333 53.3333333333333C160.8533333333333 36.16 174.8266666666667 22.2933333333334 192 22.2933333333334A31.093333333333334 31.093333333333334 0 1 1 192 84.48z" />
    <glyph glyph-name="pencil-2"
      unicode="&#xEA33;"
      horiz-adv-x="256" d="M220.9066666666667 180.9066666666667C225.0666666666667 185.0666666666667 225.0666666666667 192 220.9066666666667 195.9466666666667L195.9466666666667 220.9066666666667C192 225.0666666666667 185.0666666666667 225.0666666666667 180.9066666666667 220.9066666666667L161.28 201.3866666666667L201.28 161.3866666666667L220.9066666666667 180.9066666666667zM32 72V32H72L189.9733333333333 150.08L149.9733333333333 190.08L32 72z" />
    <glyph glyph-name="Placeholder-2"
      unicode="&#xEA34;"
      horiz-adv-x="256" d="M112.5 230.891C91.858 227.914 70.077 216.854 55.273 201.833C45.473 191.889 40.758 185.321 34.93 173.5C4.202 111.172 42.742 36.665 111.5 25.473C164.188 16.897 214.845 50.193 228.692 102.5C231.011 111.26 231.339 114.422 231.339 128C231.339 141.634 231.018 144.704 228.669 153.5C223.735 171.974 215.694 186.113 202.034 200.337C178.886 224.439 145.876 235.704 112.5 230.891M151.421 212.5C183.057 203.314 205.406 180.127 213.59 148C216.101 138.142 216.194 118.502 213.778 108.492C205.869 75.726 182.933 52.356 149.316 42.811C138.142 39.638 117.858 39.638 106.684 42.811C84.116 49.219 67.049 61.1 55.519 78.429C45.814 93.014 41.297 106.55 40.309 124C37.826 167.888 70.592 208.04 114.536 214.957C124.623 216.545 141.321 215.433 151.421 212.5" />
    <glyph glyph-name="search-solid-1-2"
      unicode="&#xEA35;"
      horiz-adv-x="256" d="M101.3333333333333 224A69.33333333333334 69.33333333333334 0 0 0 170.6666666666667 154.6666666666667C170.6666666666667 137.4933333333334 164.3733333333333 121.7066666666667 154.0266666666667 109.5466666666667L156.9066666666667 106.6666666666667H165.3333333333333L218.6666666666666 53.3333333333334L202.6666666666666 37.3333333333334L149.3333333333333 90.6666666666667V99.0933333333334L146.4533333333333 101.9733333333334A69.504 69.504 0 0 0 101.3333333333333 85.3333333333333A69.33333333333334 69.33333333333334 0 1 0 101.3333333333333 224zM101.3333333333333 202.6666666666667C74.6666666666667 202.6666666666667 53.3333333333333 181.3333333333334 53.3333333333333 154.6666666666667S74.6666666666667 106.6666666666667 101.3333333333333 106.6666666666667S149.3333333333333 128 149.3333333333333 154.6666666666667S128 202.6666666666667 101.3333333333333 202.6666666666667z" />
    <glyph glyph-name="running-solid-1-2"
      unicode="&#xEA36;"
      horiz-adv-x="256" d="M144 197.3333333333334C155.6266666666667 197.3333333333334 165.3333333333334 207.1466666666667 165.3333333333334 218.6666666666667A21.333333333333332 21.333333333333332 0 0 1 144 240C132.16 240 122.6666666666667 230.6133333333334 122.6666666666667 218.6666666666667C122.6666666666667 207.1466666666667 132.16 197.3333333333334 144 197.3333333333334zM105.4933333333333 49.28L116.16 96L138.6666666666667 74.6666666666667V10.6666666666667H160V90.6666666666667L137.4933333333334 112L144 144A77.76000000000002 77.76000000000002 0 0 1 202.6666666666667 117.3333333333334V138.6666666666667C182.2933333333333 138.6666666666667 165.3333333333333 149.3333333333334 156.6933333333333 164.48L146.0266666666667 181.3333333333334C141.76 187.9466666666667 135.36 192 128 192C124.6933333333333 192 122.6666666666667 191.1466666666667 119.36 191.1466666666667L64 167.68V117.3333333333334H85.3333333333333V153.8133333333333L104.4266666666667 161.28L87.36 74.6666666666667L35.0933333333333 85.3333333333333L30.8266666666667 64L105.4933333333333 49.28z" />
    <glyph glyph-name="jordan-2"
      unicode="&#xEA37;"
      horiz-adv-x="256" d="M68.3413333333333 100.5546666666667C66.6346666666667 97.568 63.872 95.0186666666667 60.896 93.1093333333333C60.0426666666667 92.4693333333333 58.976 92.256 58.1226666666667 92.256C56.8426666666667 92.256 55.5733333333333 92.0426666666667 54.2933333333333 92.0426666666667C53.2266666666667 91.8293333333333 52.3733333333333 91.616 51.5306666666667 90.7626666666667L50.8906666666667 89.9093333333333V89.4826666666667C50.8906666666667 89.2693333333333 51.104 89.2693333333333 51.104 89.056C51.3173333333333 88.8426666666667 51.5306666666667 88.8426666666667 51.744 88.8426666666667C52.5973333333333 88.6293333333333 53.664 88.6293333333333 54.5173333333333 88.6293333333333C55.3706666666667 88.6293333333333 56.4266666666667 88.6293333333333 57.28 88.416C57.4933333333333 88.416 57.7066666666667 88.2026666666666 57.92 88.2026666666666L58.1333333333333 87.9893333333333L58.3466666666667 87.776C58.3466666666667 87.36 58.56 86.9333333333333 58.7733333333333 86.7199999999999C59.2 86.2933333333333 59.84 86.08 60.4693333333333 85.8666666666666L66.208 83.9466666666666C67.0613333333333 83.5306666666666 67.7013333333333 83.3173333333333 68.3413333333333 82.6773333333333C68.9813333333333 83.9573333333333 70.2613333333333 85.024 71.5413333333333 85.2373333333333A9.6 9.6 0 0 0 75.7866666666667 85.024C77.7066666666667 84.5973333333333 79.6266666666667 84.384 81.536 84.1706666666667V88.64C80.896 88.4266666666667 80.256 88.4266666666667 79.8293333333334 88.8533333333334C79.1893333333334 89.28 78.976 89.7066666666667 78.5493333333334 90.56A9.44 9.44 0 0 0 78.1226666666667 95.4453333333334C78.336 96.512 78.5493333333334 97.3653333333334 79.1893333333334 98.2186666666667C79.616 98.8586666666667 80.6826666666667 99.072 81.536 98.8586666666667V103.9466666666667L82.176 104.5866666666667H84.2986666666667C86.2186666666667 106.5066666666666 88.3413333333333 108.416 90.464 110.3253333333333C92.8106666666667 112.032 94.5173333333333 114.1653333333333 96.0106666666667 116.288C95.7973333333333 116.7146666666667 95.584 117.1413333333333 95.7973333333333 117.7813333333333C96.0106666666667 119.4773333333333 96.64 120.9706666666667 97.7066666666667 122.24C98.3466666666667 123.0933333333333 99.2 123.9466666666667 100.0426666666667 124.5866666666667C100.256 124.8 100.6826666666667 124.8 100.896 125.0133333333333C101.3226666666667 125.2266666666667 101.7493333333334 125.0133333333333 102.176 124.5866666666667C104.7253333333334 122.0266666666667 106.6346666666667 119.0506666666667 107.7013333333334 115.648C108.768 112.8746666666666 109.6213333333334 110.112 110.2613333333334 107.136C110.2613333333334 106.7093333333333 110.048 106.2826666666666 110.048 106.0693333333333C109.6213333333334 105.6426666666666 109.1946666666667 105.216 108.5546666666667 104.7893333333333L105.3546666666667 103.0933333333333C104.7146666666667 102.6666666666666 104.5013333333333 102.4533333333333 104.0853333333333 101.8133333333333C103.872 101.6 103.872 101.3866666666666 103.6586666666667 100.96L103.0186666666667 93.9413333333333C102.8053333333333 92.448 102.1653333333333 91.1786666666667 101.0986666666667 89.8986666666667A5.013333333333333 5.013333333333333 0 0 0 97.4933333333333 88.6186666666667C94.2933333333333 83.9466666666667 89.6213333333333 80.3306666666667 84.2986666666667 78.1973333333333C83.6586666666667 75.6373333333333 82.1653333333333 73.3013333333333 80.256 71.392A53.15199999999999 53.15199999999999 0 0 0 65.3653333333334 61.6A94.69866666666667 94.69866666666667 0 0 1 34.5066666666667 39.0506666666667C32.8 37.1306666666667 30.8906666666667 35.2213333333334 28.768 33.728C27.9146666666667 33.3013333333333 26.848 32.8746666666667 25.9946666666667 32.6613333333333H25.568L24.928 33.3013333333333C24.2986666666667 33.9413333333333 23.872 34.5813333333333 23.4453333333334 35.2213333333333C23.232 35.4346666666667 23.0186666666667 35.648 23.0186666666667 35.8613333333333H22.8053333333334C22.592 35.8613333333333 22.592 35.8613333333333 22.592 35.648L22.3786666666667 35.4346666666666C22.1653333333334 31.808 20.672 28.6293333333333 18.5493333333334 26.0693333333333C17.2693333333334 24.7893333333333 15.7866666666667 24.1493333333333 14.08 23.7226666666666L6.4213333333334 23.5093333333333C4.928 23.3066666666666 3.6586666666667 22.88 2.1653333333334 22.0266666666666C0.672 21.1733333333333 -0.1706666666666 19.68 0.0426666666667 17.984C0.256 14.7946666666666 2.176 12.032 5.3653333333334 10.9653333333333C8.768 9.472 12.384 9.2586666666666 16 10.3253333333333C20.0426666666667 10.9653333333333 23.872 12.4586666666667 27.488 14.592C29.1946666666667 15.8613333333333 30.688 17.1413333333333 31.7546666666667 19.0506666666667C35.1466666666667 23.7333333333334 40.256 27.3493333333333 45.792 28.6293333333333C47.712 29.2693333333333 49.6213333333333 30.336 51.3173333333334 31.8186666666667C53.8773333333334 34.1653333333333 56.8533333333334 36.288 59.616 38.4106666666667L62.176 39.6906666666667C68.9813333333334 42.8906666666667 75.5733333333334 46.496 81.7493333333333 50.9653333333334C86.208 54.1653333333333 91.3173333333333 56.7146666666667 96.64 58.624C101.7493333333333 61.184 106.6346666666667 63.9466666666667 111.5306666666667 66.9226666666667C115.584 69.4826666666667 120.256 70.5493333333334 125.152 70.336C128.3413333333333 69.696 131.104 68.8426666666667 134.08 67.3493333333333C143.0186666666667 63.0933333333333 152.384 59.4773333333333 161.9626666666667 56.928C169.408 55.648 176.4266666666667 52.448 182.3893333333333 47.5626666666667A164.40533333333335 164.40533333333335 0 0 1 209.1946666666667 29.4826666666667C216 25.856 221.7493333333333 19.904 224.9386666666667 12.672C225.152 11.8186666666667 225.5786666666667 11.1786666666667 226.432 10.752C227.072 10.112 228.1386666666667 10.112 228.9813333333333 10.3253333333333C230.2613333333333 10.752 231.5413333333333 11.1786666666667 232.5973333333333 12.032C235.3706666666667 14.3786666666667 238.336 16.288 241.1093333333333 18.4106666666667C244.9386666666667 20.544 248.5546666666667 23.0933333333334 251.744 25.856C253.024 27.136 254.0906666666667 28.2026666666667 254.944 29.696C255.3706666666667 30.1226666666667 255.584 30.7626666666667 255.7973333333333 31.392C256.0106666666666 31.8186666666667 256.0106666666666 32.2453333333334 256.0106666666666 32.672C255.7973333333333 33.0986666666667 255.584 33.312 255.3706666666667 33.5253333333334A3.594666666666667 3.594666666666667 0 0 1 253.2373333333333 34.1653333333333C250.2506666666667 34.1653333333333 247.488 33.312 244.7253333333333 31.8186666666667C244.2986666666667 31.6053333333333 243.872 31.1786666666667 243.4453333333333 30.9653333333334C243.0186666666667 30.5386666666667 242.8053333333333 30.3253333333334 242.1653333333333 30.3253333333334A10.56 10.56 0 0 0 236.4266666666667 30.5386666666667A5.5680000000000005 5.5680000000000005 0 0 0 234.5066666666667 31.6053333333334C234.08 31.8186666666667 233.8666666666667 32.2453333333334 233.6533333333334 32.672V33.312C233.8666666666667 34.1653333333333 233.8666666666667 35.2213333333334 234.08 36.288V36.928C234.08 37.1413333333333 233.8666666666667 37.1413333333333 233.8666666666667 37.3546666666667C233.6533333333334 37.3546666666667 233.6533333333334 37.568 233.6533333333334 37.568H233.44C233.2266666666667 37.3546666666667 233.0133333333333 37.3546666666667 233.0133333333333 37.1413333333333L232.384 36.5013333333334C231.104 35.4346666666667 229.824 34.7946666666667 228.128 34.7946666666667C226.6346666666667 34.7946666666667 224.928 35.2213333333334 223.872 36.288C223.4453333333333 36.5013333333334 223.232 36.7146666666667 223.232 37.1413333333333C221.7386666666667 39.4773333333334 220.0426666666667 41.6 217.92 43.3066666666667L200.4693333333334 57.7706666666667C196.6293333333333 60.1173333333333 193.024 62.6773333333333 189.408 65.4293333333334A26.773333333333333 26.773333333333333 0 0 1 186.6346666666667 67.776C184.7146666666667 69.056 182.592 69.696 180.256 70.5493333333334C178.7626666666667 70.976 177.4826666666667 71.8186666666667 176.4266666666667 72.672A5.4399999999999995 5.4399999999999995 0 0 0 174.72 77.568C173.0133333333333 78.208 171.104 78.848 169.408 79.904A105.344 105.344 0 0 0 154.72 89.056C154.2933333333333 89.2693333333334 154.08 89.696 153.8666666666667 90.1226666666667C153.44 91.1893333333333 153.0133333333334 92.2453333333334 152.8 93.312A9.429333333333334 9.429333333333334 0 0 1 151.5306666666667 96.7146666666667A3.2 3.2 0 0 1 149.6106666666667 98.208L148.3413333333334 98.6346666666667A4.458666666666666 4.458666666666666 0 0 0 145.5680000000001 101.3973333333334C145.1413333333334 102.6773333333334 144.9280000000001 104.16 144.9280000000001 105.44C145.3546666666667 108.416 145.7813333333334 111.1786666666667 146.4213333333334 113.9413333333334A45.728 45.728 0 0 1 141.9626666666667 140.544A10.453333333333333 10.453333333333333 0 0 0 140.6826666666667 144.16C140.2560000000001 147.776 140.6826666666667 151.6053333333334 141.7493333333334 155.008C143.2426666666667 159.6906666666667 144.2986666666667 164.8 144.9386666666667 169.6853333333334C145.3653333333334 175.0186666666667 146.6453333333334 179.904 148.9813333333334 184.5866666666667C149.8346666666667 185.8666666666667 150.4746666666667 187.36 150.9013333333334 189.056C151.9680000000001 193.5253333333334 152.5973333333334 197.984 152.5973333333334 202.6666666666667C152.3840000000001 207.776 153.2373333333334 212.672 155.1573333333334 217.3546666666667C155.3706666666667 217.7813333333334 155.5840000000001 218.208 156.0106666666667 218.6346666666667C156.8533333333334 219.2746666666667 157.7066666666667 219.4773333333334 158.5493333333334 219.904C160.0426666666667 220.3306666666667 161.7493333333334 220.7573333333334 163.0293333333334 221.6106666666667C166.208 224.16 167.9146666666667 227.776 168.1280000000001 231.6053333333334C168.1280000000001 235.648 166.4213333333334 239.4773333333334 163.4453333333334 242.0266666666667A13.333333333333332 13.333333333333332 0 0 1 147.488 244.8C142.3786666666667 241.3866666666667 139.8293333333334 235.4346666666667 140.896 229.6853333333334C141.7493333333334 226.7093333333334 142.6026666666667 223.9466666666667 144.096 220.9706666666667C145.3653333333333 218.4106666666667 145.792 215.648 145.5786666666667 213.0986666666667C145.152 208.192 143.872 203.52 141.7386666666667 199.0506666666667C140.256 195.648 138.976 192.2453333333334 138.336 188.6293333333333A62.61333333333334 62.61333333333334 0 0 0 134.9333333333333 174.7946666666667C134.08 172.0213333333333 132.384 169.8986666666667 130.048 168.2026666666667C129.1946666666667 167.5626666666667 128.128 167.5626666666667 127.2746666666666 167.9893333333333C126.4213333333333 168.416 125.568 168.8426666666667 124.928 169.696L120.0426666666666 174.1546666666667A7.626666666666667 7.626666666666667 0 0 1 114.9333333333333 176.0746666666667A15.573333333333332 15.573333333333332 0 0 1 103.232 169.056A6.72 6.72 0 0 1 102.3786666666666 162.4533333333333C103.232 160.5333333333333 104.2986666666666 158.624 105.152 156.7146666666667C106.0053333333333 155.4346666666667 106.432 153.9413333333333 106.6453333333333 152.2346666666667C106.8586666666666 151.6053333333333 106.432 150.752 106.2186666666666 150.112C105.792 149.472 104.9386666666666 148.832 104.2986666666666 148.6186666666667C103.0186666666666 148.192 101.5253333333333 147.9786666666667 100.256 147.9786666666667C96.4266666666666 142.4533333333333 92.8106666666666 136.928 90.048 130.752C88.3413333333333 127.9786666666667 86.4213333333333 125.2266666666667 84.2986666666666 122.4533333333333C81.0986666666666 117.7706666666667 78.1333333333333 112.672 75.36 107.776C72.5866666666667 104.7893333333333 70.6773333333333 102.4533333333333 68.3413333333333 100.544z" />
    <glyph glyph-name="question-solid-2"
      unicode="&#xEA38;"
      horiz-adv-x="256" d="M106.6666666666667 53.3333333333333H138.6666666666667V21.3333333333333H106.6666666666667V53.3333333333333zM128 234.6666666666667C185.0666666666667 232.32 209.92 174.72 176 131.52C167.1466666666667 120.8533333333333 152.8533333333333 113.8133333333333 145.8133333333333 104.8533333333333C138.6666666666667 96 138.6666666666667 85.3333333333333 138.6666666666667 74.6666666666667H106.6666666666667C106.6666666666667 92.48 106.6666666666667 107.52 113.8133333333333 118.1866666666667C120.8533333333333 128.8533333333334 135.1466666666667 135.1466666666667 144 142.1866666666667C169.8133333333333 166.08 163.4133333333333 199.8933333333334 128 202.6666666666667A32 32 0 0 1 96 170.6666666666667H64A64 64 0 0 0 128 234.6666666666667z" />
    <glyph glyph-name="nike-2"
      unicode="&#xEA39;"
      horiz-adv-x="256" d="M14.0906666666667 88.384C26.72 65.7173333333334 57.1626666666667 76.032 76.5226666666667 84.736L256 168.736L151.8613333333333 138.7626666666667L78.8373333333333 117.28C64 112.8746666666667 52.0533333333333 113.5146666666667 45.12 119.3173333333334C27.776 133.7173333333334 41.2586666666667 162.176 46.08 170.6666666666667C37.408 160.352 28.928 149.7173333333334 22.0906666666667 138.5493333333334C11.5946666666667 120.5013333333334 6.9653333333333 101.056 14.0906666666667 88.384z" />
    <glyph glyph-name="google-plus-1-2"
      unicode="&#xEA3A;"
      horiz-adv-x="256" d="M128 224C74.9546666666667 224 32 181.0453333333333 32 128S74.9546666666667 32 128 32S224 74.9546666666667 224 128C224 134.5813333333333 223.296 141.0026666666667 221.9946666666667 147.2L221.504 149.3333333333334H128V117.3333333333334H192C186.912 87.0826666666667 159.712 64 128 64C92.6613333333333 64 64 92.672 64 128C64 163.3386666666667 92.672 192 128 192C144 192 158.5813333333333 186.08 169.8346666666667 176.3733333333333L192.7466666666667 198.8373333333333A95.59466666666667 95.59466666666667 0 0 1 128 224z" />
    <glyph glyph-name="music-solid-1-2"
      unicode="&#xEA3B;"
      horiz-adv-x="256" d="M128 224V111.4666666666667C121.7066666666667 115.0933333333333 114.4533333333333 117.3333333333334 106.6666666666667 117.3333333333334C83.0933333333333 117.3333333333334 64 98.24 64 74.6666666666667S83.0933333333333 32 106.6666666666667 32S149.3333333333333 51.0933333333334 149.3333333333333 74.6666666666667V181.3333333333334H192V224H128z" />
    <glyph glyph-name="microchip-solid-1-2"
      unicode="&#xEA3C;"
      horiz-adv-x="256" d="M128 192A64 64 0 0 0 192 128C192 104.32 179.0933333333333 83.6266666666667 160 72.5333333333333V53.3333333333333A10.666666666666666 10.666666666666666 0 0 0 149.3333333333334 42.6666666666667H106.6666666666667A10.666666666666666 10.666666666666666 0 0 0 96 53.3333333333333V72.5333333333333C76.9066666666667 83.6266666666667 64 104.32 64 128A64 64 0 0 0 128 192zM149.3333333333334 32V21.3333333333333A10.666666666666666 10.666666666666666 0 0 0 138.6666666666667 10.6666666666667H117.3333333333334A10.666666666666666 10.666666666666666 0 0 0 106.6666666666667 21.3333333333333V32H149.3333333333334zM213.3333333333334 138.6666666666667H245.3333333333334V117.3333333333333H213.3333333333334V138.6666666666666zM10.6666666666667 138.6666666666667H42.6666666666667V117.3333333333334H10.6666666666667V138.6666666666667zM138.6666666666667 245.3333333333334V213.3333333333334H117.3333333333333V245.3333333333334H138.6666666666667zM52.48 218.6666666666667L75.2 195.84L60.0533333333333 180.8L37.3333333333333 203.4133333333334L52.48 218.6666666666667zM180.8 195.9466666666667L203.4133333333333 218.6666666666667L218.6666666666667 203.4133333333334L195.9466666666667 180.8L180.8 195.9466666666667z" />
    <glyph glyph-name="basketball-ball-solid-1-2"
      unicode="&#xEA3D;"
      horiz-adv-x="256" d="M24.96 99.9466666666667C31.36 102.2933333333333 37.9733333333333 103.4666666666667 45.0133333333333 103.4666666666667C59.3066666666667 103.4666666666667 71.7866666666667 98.9866666666667 82.4533333333333 90.0266666666667L48.96 56.5333333333334A113.17333333333335 113.17333333333335 0 0 0 24.96 99.9466666666667zM165.9733333333333 151.4666666666667C186.9866666666667 135.7866666666667 209.7066666666667 131.9466666666667 234.0266666666667 139.9466666666667C234.3466666666667 137.7066666666667 234.6666666666667 133.6533333333333 234.6666666666667 128C234.6666666666667 117.0133333333333 232 104.7466666666667 226.9866666666666 91.2C221.9733333333333 77.76 215.7866666666666 66.88 208.5333333333333 58.6666666666667L141.0133333333333 125.9733333333333L165.9733333333333 151.4666666666667zM93.5466666666667 78.5066666666667C104.8533333333333 62.1866666666667 107.2 44.3733333333333 100.48 24.96C85.3333333333333 29.3333333333333 71.7866666666667 36.16 60.48 45.5466666666667L93.5466666666667 78.5066666666667zM130.0266666666667 114.9866666666667L197.3333333333333 47.4666666666666C174.1866666666667 27.2 146.9866666666667 18.6666666666666 116.0533333333333 21.9733333333333C118.2933333333333 29.0133333333333 119.4666666666667 36.6933333333333 119.4666666666667 45.0133333333333C119.4666666666667 51.6266666666666 117.9733333333333 59.4133333333333 114.9866666666666 68.2666666666666C112 77.12 108.48 84.3733333333333 104.5333333333333 90.0266666666666L130.0266666666667 114.9866666666666zM93.9733333333333 101.3333333333333A71.41333333333333 71.41333333333333 0 0 1 59.52 118.2933333333334C46.5066666666667 120.7466666666667 34.0266666666667 120 21.9733333333333 115.9466666666667C21.6533333333333 118.2933333333334 21.3333333333333 122.3466666666667 21.3333333333333 128C21.3333333333333 138.9866666666667 24 151.2533333333333 29.0133333333333 164.8C34.0266666666667 178.24 40.2133333333333 189.12 47.4666666666667 197.3333333333334L118.5066666666667 125.9733333333334L93.9733333333333 101.3333333333334zM165.9733333333333 173.5466666666667C151.68 191.1466666666667 148.3733333333333 210.3466666666667 156.0533333333334 231.04C162.6666666666667 229.3333333333333 170.24 226.1333333333334 178.7733333333334 221.2266666666667C187.2 216.4266666666667 194.1333333333333 211.6266666666667 199.4666666666667 207.04L165.9733333333333 173.5466666666667zM231.04 155.9466666666667C224.64 153.7066666666667 218.0266666666667 152.5333333333334 210.9866666666667 152.5333333333334C199.36 152.5333333333334 188.16 155.9466666666667 177.4933333333333 162.9866666666667L210.4533333333333 195.52C219.84 183.7866666666667 226.6666666666667 170.6666666666667 231.04 155.9466666666667zM130.0266666666667 137.4933333333334L58.6666666666667 208.5333333333333C81.8133333333333 228.8 109.0133333333333 237.3333333333334 140.0533333333333 234.0266666666667C137.7066666666667 226.9866666666667 136.5333333333333 219.3066666666667 136.5333333333333 210.9866666666667C136.5333333333333 203.3066666666667 138.24 194.6666666666667 141.76 184.96C145.28 175.36 149.3333333333333 167.68 154.6666666666666 162.0266666666667L130.0266666666667 137.4933333333334z" />
    <glyph glyph-name="information-2"
      unicode="&#xEA3E;"
      horiz-adv-x="256" d="M138.6666666666667 160H117.3333333333333V181.3333333333334H138.6666666666667V160zM138.6666666666667 74.6666666666667H117.3333333333333V138.6666666666667H138.6666666666667V74.6666666666667zM128 234.6666666666667A106.66666666666666 106.66666666666666 0 1 1 128 21.3333333333333A106.66666666666666 106.66666666666666 0 0 1 128 234.6666666666667z" />
    <glyph glyph-name="book-2"
      unicode="&#xEA3F;"
      horiz-adv-x="256" d="M186.6666666666667 103.1466666666667C195.0933333333333 103.1466666666667 204.0533333333333 102.2933333333334 213.3333333333333 100.5866666666667V84.5866666666667C206.72 86.2933333333334 197.76 87.1466666666667 186.6666666666667 87.1466666666667C166.4 87.1466666666667 150.5066666666667 83.6266666666667 138.6666666666667 76.5866666666667V94.6133333333334C151.1466666666667 100.2666666666667 167.1466666666667 103.1466666666667 186.6666666666667 103.1466666666667zM138.6666666666667 123.0933333333333C152.4266666666667 128.7466666666667 168.4266666666667 131.52 186.6666666666667 131.52C195.0933333333333 131.52 204.0533333333333 130.7733333333333 213.3333333333333 129.0666666666667V113.0666666666667C206.72 114.7733333333334 197.76 115.6266666666667 186.6666666666667 115.6266666666667C166.4 115.6266666666667 150.5066666666667 112 138.6666666666667 105.0666666666667V123.0933333333333zM186.6666666666667 144C166.4 144 150.5066666666667 140.5866666666667 138.6666666666667 133.3333333333333V151.04C151.7866666666667 157.0133333333333 167.7866666666667 160 186.6666666666667 160C195.0933333333333 160 204.0533333333333 159.1466666666667 213.3333333333333 157.5466666666667V141.0133333333333C205.44 143.04 196.3733333333333 144 186.6666666666667 144zM224 58.6666666666667V181.3333333333334C212.9066666666667 184.8533333333334 200.4266666666667 186.6666666666667 186.6666666666667 186.6666666666667C164.8 186.6666666666667 145.28 181.3333333333334 128 170.6666666666667V48C145.28 58.6666666666667 164.8 64 186.6666666666667 64C199.36 64 211.84 62.2933333333333 224 58.6666666666667zM186.6666666666667 208C211.7333333333334 208 231.36 202.6666666666667 245.3333333333334 192V36.6933333333333C245.3333333333334 35.4133333333333 244.8 34.1333333333333 243.6266666666667 32.96C242.4533333333333 32 241.1733333333334 31.1466666666667 240 31.1466666666667C238.8266666666667 31.1466666666667 237.9733333333334 31.36 237.3333333333334 31.68C223.68 39.04 206.72 42.6666666666667 186.6666666666667 42.6666666666667C164.8 42.6666666666667 145.28 37.3333333333333 128 26.6666666666667C113.7066666666667 37.3333333333333 94.1866666666667 42.6666666666667 69.3333333333334 42.6666666666667C51.6266666666667 42.6666666666667 34.6666666666667 38.8266666666667 18.6666666666667 31.2533333333334C18.3466666666667 31.1466666666667 17.92 31.1466666666667 17.3866666666667 30.9333333333334C16.96 30.8266666666667 16.5333333333334 30.72 16 30.72C14.8266666666667 30.72 13.5466666666667 31.1466666666667 12.3733333333334 32A5.066666666666666 5.066666666666666 0 0 0 10.6666666666667 35.7333333333334V192C24.96 202.6666666666667 44.5866666666667 208 69.3333333333334 208C94.1866666666667 208 113.7066666666667 202.6666666666667 128 192C142.2933333333334 202.6666666666667 161.8133333333334 208 186.6666666666667 208z" />
    <glyph glyph-name="futbol-1-2"
      unicode="&#xEA40;"
      horiz-adv-x="256" d="M42.6666666666667 213.3333333333334C30.8266666666667 213.3333333333334 21.3333333333333 203.84 21.3333333333333 192V64A21.333333333333332 21.333333333333332 0 0 1 42.6666666666667 42.6666666666667H213.3333333333333A21.333333333333332 21.333333333333332 0 0 1 234.6666666666667 64V192A21.333333333333332 21.333333333333332 0 0 1 213.3333333333333 213.3333333333333H42.6666666666667zM42.6666666666667 192H117.3333333333333V169.28C98.56 164.3733333333333 85.3333333333333 147.4133333333334 85.3333333333333 128A42.773333333333326 42.773333333333326 0 0 1 117.3333333333333 86.72V64H42.6666666666667V85.3333333333333H74.6666666666667V170.6666666666667H42.6666666666667V192zM138.6666666666667 192H213.3333333333333V170.6666666666667H181.3333333333333V85.3333333333333H213.3333333333333V64H138.6666666666667V86.72C157.44 91.6266666666667 170.6666666666667 108.5866666666667 170.6666666666667 128A42.773333333333326 42.773333333333326 0 0 1 138.6666666666667 169.28V192zM42.6666666666667 149.3333333333334H53.3333333333333V106.6666666666667H42.6666666666667V149.3333333333334zM202.6666666666667 149.3333333333334H213.3333333333333V106.6666666666667H202.6666666666667V149.3333333333334zM138.6666666666667 146.4533333333334C145.28 142.6133333333334 149.3333333333333 135.5733333333334 149.3333333333333 128S145.28 113.3866666666667 138.6666666666667 109.5466666666667V146.4533333333334zM117.3333333333333 146.4533333333334V109.5466666666667C110.72 113.3866666666667 106.6666666666667 120.4266666666667 106.6666666666667 128S110.72 142.6133333333334 117.3333333333333 146.4533333333334z" />
    <glyph glyph-name="file-image-2"
      unicode="&#xEA41;"
      horiz-adv-x="256" d="M138.6666666666667 160H197.3333333333333L138.6666666666667 218.6666666666667V160zM64 234.6666666666667H149.3333333333333L213.3333333333333 170.6666666666667V42.6666666666667A21.333333333333332 21.333333333333332 0 0 0 192 21.3333333333333H64A21.333333333333332 21.333333333333332 0 0 0 42.6666666666667 42.6666666666667V213.3333333333334C42.6666666666667 225.1733333333334 52.16 234.6666666666667 64 234.6666666666667zM64 42.6666666666667H192V128L149.3333333333334 85.3333333333333L128 106.6666666666667L64 42.6666666666667zM85.3333333333333 160A21.333333333333332 21.333333333333332 0 1 1 85.3333333333333 117.3333333333334A21.333333333333332 21.333333333333332 0 0 1 85.3333333333333 160z" />
    <glyph glyph-name="female-solid-1-2"
      unicode="&#xEA42;"
      horiz-adv-x="256" d="M128 213.3333333333334A64 64 0 0 0 192 149.3333333333334C192 117.6533333333333 168.96 91.3066666666667 138.6666666666667 86.1866666666667V64H160V42.6666666666667H138.6666666666667V21.3333333333333H117.3333333333334V42.6666666666667H96V64H117.3333333333333V86.1866666666667C87.04 91.3066666666667 64 117.6533333333333 64 149.3333333333333A64 64 0 0 0 128 213.3333333333333zM128 192A42.666666666666664 42.666666666666664 0 1 1 128 106.6666666666667A42.666666666666664 42.666666666666664 0 0 1 128 192z" />
    <glyph glyph-name="facebook-f-1-2"
      unicode="&#xEA43;"
      horiz-adv-x="256" d="M162.6986666666667 234.6666666666667C131.872 234.6666666666667 113.7813333333333 218.8053333333334 113.7813333333333 182.656V150.8586666666667H74.6666666666667V112.7573333333334H113.7813333333333V21.3333333333333H152.8853333333333V112.7573333333334H184.1813333333333L192 150.8586666666667H152.8853333333333V176.2133333333334C152.8853333333333 189.8346666666667 157.4506666666667 196.576 170.5706666666667 196.576H192V233.1093333333333C188.288 233.5893333333334 177.4933333333334 234.6666666666667 162.6986666666667 234.6666666666667z" />
    <glyph glyph-name="eye-2"
      unicode="&#xEA44;"
      horiz-adv-x="256" d="M128 160A32 32 0 1 1 128 96A32 32 0 0 1 128 160zM128 74.6666666666667A53.33333333333333 53.33333333333333 0 1 0 128 181.3333333333334A53.33333333333333 53.33333333333333 0 0 0 128 74.6666666666667zM128 208C74.6666666666667 208 29.12 174.8266666666667 10.6666666666667 128C29.12 81.1733333333334 74.6666666666667 48 128 48S226.88 81.1733333333334 245.3333333333333 128C226.88 174.8266666666667 181.3333333333333 208 128 208z" />
    <glyph glyph-name="comment-1-2"
      unicode="&#xEA45;"
      horiz-adv-x="256" d="M96 21.3333333333333A10.666666666666666 10.666666666666666 0 0 0 85.3333333333333 32V64H42.6666666666667A21.333333333333332 21.333333333333332 0 0 0 21.3333333333333 85.3333333333333V213.3333333333334A21.333333333333332 21.333333333333332 0 0 0 42.6666666666667 234.6666666666667H213.3333333333333A21.333333333333332 21.333333333333332 0 0 0 234.6666666666667 213.3333333333334V85.3333333333333A21.333333333333332 21.333333333333332 0 0 0 213.3333333333333 64H148.2666666666667L108.8 24.4266666666667C106.6666666666666 22.4 104 21.3333333333333 101.3333333333333 21.3333333333333H96zM53.3333333333333 202.6666666666667V181.3333333333334H202.6666666666666V202.6666666666667H53.3333333333333zM53.3333333333333 160V138.6666666666667H138.6666666666667V160H53.3333333333333zM53.3333333333333 117.3333333333334V96H160V117.3333333333334H53.3333333333333z" />
    <glyph glyph-name="check-solid-1-2"
      unicode="&#xEA46;"
      horiz-adv-x="256" d="M219.7013333333334 178.9226666666667L91.7013333333333 50.9226666666667L33.0346666666667 109.5893333333333L48.0746666666667 124.6293333333333L91.7013333333333 81.1093333333333L204.6613333333334 193.9626666666667L219.7013333333334 178.9226666666667z" />
    <glyph glyph-name="camera-2"
      unicode="&#xEA47;"
      horiz-adv-x="256" d="M42.6666666666667 213.3333333333334H74.6666666666667L96 234.6666666666667H160L181.3333333333334 213.3333333333334H213.3333333333334A21.333333333333332 21.333333333333332 0 0 0 234.6666666666667 192V64A21.333333333333332 21.333333333333332 0 0 0 213.3333333333334 42.6666666666667H42.6666666666667A21.333333333333332 21.333333333333332 0 0 0 21.3333333333333 64V192A21.333333333333332 21.333333333333332 0 0 0 42.6666666666667 213.3333333333333zM128 181.3333333333334A53.33333333333333 53.33333333333333 0 1 1 128 74.6666666666667A53.33333333333333 53.33333333333333 0 0 1 128 181.3333333333334zM128 160A32 32 0 1 0 128 96A32 32 0 0 0 128 160z" />
    <glyph glyph-name="calendar-2"
      unicode="&#xEA48;"
      horiz-adv-x="256" d="M202.6666666666667 53.3333333333333H53.3333333333333V170.6666666666667H202.6666666666666V53.3333333333333zM170.6666666666667 245.3333333333334V224H85.3333333333333V245.3333333333334H64V224H53.3333333333333C41.4933333333333 224 32 214.5066666666667 32 202.6666666666667V53.3333333333334A21.333333333333332 21.333333333333332 0 0 1 53.3333333333333 32H202.6666666666666A21.333333333333332 21.333333333333332 0 0 1 224 53.3333333333334V202.6666666666667A21.333333333333332 21.333333333333332 0 0 1 202.6666666666666 224H192V245.3333333333334H170.6666666666666zM181.3333333333333 128H128V74.6666666666667H181.3333333333333V128z" />
    <glyph glyph-name="bookmark-2"
      unicode="&#xEA49;"
      horiz-adv-x="256" d="M181.3333333333333 224H74.6666666666667A21.333333333333332 21.333333333333332 0 0 1 53.3333333333333 202.6666666666667V32L128 64L202.6666666666666 32V202.6666666666667A21.333333333333332 21.333333333333332 0 0 1 181.3333333333333 224z" />
    <glyph glyph-name="vestuario-2"
      unicode="&#xEA4A;"
      horiz-adv-x="256" d="M170.6666666666667 32H85.3333333333333A10.666666666666666 10.666666666666666 0 0 0 74.6666666666667 42.6666666666667V127.2533333333333L60.8 116.5866666666667A10.623999999999999 10.623999999999999 0 0 0 45.76 116.5866666666667L15.5733333333333 146.24A10.623999999999999 10.623999999999999 0 0 0 15.5733333333333 161.28L78.2933333333333 224H96C96 212.2666666666667 110.2933333333333 202.6666666666667 128 202.6666666666667S160 212.2666666666667 160 224H177.7066666666667L240.4266666666667 161.28C244.5866666666667 157.12 244.5866666666667 150.4 240.4266666666667 146.24L210.24 116.0533333333334C206.08 112 199.36 112 195.2 116.0533333333334L181.3333333333333 126.72V42.6666666666667A10.666666666666666 10.666666666666666 0 0 0 170.6666666666667 32z" />
    <glyph glyph-name="arrow-up-2"
      unicode="&#xEA4B;"
      horiz-adv-x="256" d="M138.6666666666667 42.6666666666667H117.3333333333333V170.6666666666667L58.6666666666667 112L43.52 127.1466666666667L128 211.6266666666667L212.48 127.1466666666667L197.3333333333333 112L138.6666666666667 170.6666666666667V42.6666666666667z" />
    <glyph glyph-name="angle-down-solid-2"
      unicode="&#xEA4C;"
      horiz-adv-x="256" d="M79.04 164.48L128 115.52L176.96 164.48L192 149.3333333333334L128 85.3333333333333L64 149.3333333333334L79.04 164.48z" />
    <glyph glyph-name="angle-up-solid-2"
      unicode="&#xEA4D;"
      horiz-adv-x="256" d="M79.04 91.6266666666667L128 140.48L176.96 91.6266666666667L192 106.6666666666667L128 170.6666666666667L64 106.6666666666667L79.04 91.6266666666667z" />
    <glyph glyph-name="angle-right-solid-2"
      unicode="&#xEA4E;"
      horiz-adv-x="256" d="M42.6666666666667 138.6666666666667V117.3333333333334H170.6666666666667L112 58.6666666666667L127.1466666666667 43.52L211.6266666666667 128L127.1466666666667 212.48L112 197.3333333333334L170.6666666666667 138.6666666666667H42.6666666666667z" />
    <glyph glyph-name="angle-left-solid-2"
      unicode="&#xEA4F;"
      horiz-adv-x="256" d="M213.3333333333333 138.6666666666667V117.3333333333334H85.3333333333333L144 58.6666666666667L128.8533333333333 43.52L44.3733333333333 128L128.8533333333333 212.48L144 197.3333333333334L85.3333333333333 138.6666666666667H213.3333333333333z" />
    <glyph glyph-name="alert-2"
      unicode="&#xEA50;"
      horiz-adv-x="256" d="M138.6666666666667 106.6666666666667H117.3333333333333V160H138.6666666666667V106.6666666666667zM138.6666666666667 64H117.3333333333333V85.3333333333334H138.6666666666667V64zM10.6666666666667 32H245.3333333333333L128 234.6666666666667L10.6666666666667 32z" />
    <glyph glyph-name="yoga-2"
      unicode="&#xEA51;"
      horiz-adv-x="256" d="M138.6666666666667 234.6666666666667A21.333333333333332 21.333333333333332 0 1 1 138.6666666666667 192C150.5066666666667 192 160 201.4933333333334 160 213.3333333333333A21.333333333333332 21.333333333333332 0 0 1 138.6666666666667 234.6666666666667zM42.6666666666667 181.3333333333334V160H106.6666666666667V96L52.5866666666667 41.92L67.6266666666667 26.6666666666667L139.3066666666667 98.4533333333334L181.3333333333333 73.28V32H202.6666666666667V79.2533333333333C202.6666666666667 83.0933333333333 200.7466666666667 86.5066666666667 197.3333333333333 88.4266666666667L160 110.9333333333333V160H224V181.3333333333334H42.6666666666667z" />
    <glyph glyph-name="team-2"
      unicode="&#xEA52;"
      horiz-adv-x="256" d="M128 197.3333333333334A37.33333333333334 37.33333333333334 0 1 0 128 122.6666666666667A37.33333333333334 37.33333333333334 0 0 0 128 197.3333333333334zM53.3333333333333 170.6666666666667C59.3066666666667 170.6666666666667 64.8533333333333 169.0666666666667 69.6533333333333 166.1866666666667C68.0533333333333 150.9333333333333 72.5333333333333 135.7866666666667 81.7066666666667 123.9466666666667A31.967999999999996 31.967999999999996 0 0 0 21.3333333333333 138.6666666666667A32 32 0 0 0 53.3333333333333 170.6666666666667zM202.6666666666666 170.6666666666667A32 32 0 0 0 202.6666666666666 106.6666666666667C190.2933333333333 106.6666666666667 179.6266666666666 113.7066666666667 174.2933333333333 123.9466666666667A59.050666666666665 59.050666666666665 0 0 1 186.3466666666666 166.1866666666667C191.1466666666667 169.0666666666667 196.6933333333333 170.6666666666667 202.6666666666666 170.6666666666667zM58.6666666666667 61.3333333333333C58.6666666666667 83.4133333333334 89.7066666666667 101.3333333333333 128 101.3333333333333S197.3333333333333 83.4133333333334 197.3333333333333 61.3333333333333V42.6666666666667H58.6666666666667V61.3333333333333zM0 42.6666666666667V58.6666666666667C0 73.4933333333333 20.16 85.9733333333334 47.4666666666667 89.6C41.1733333333333 82.3466666666667 37.3333333333333 72.32 37.3333333333333 61.3333333333334V42.6666666666667H0zM256 42.6666666666667H218.6666666666667V61.3333333333333C218.6666666666667 72.32 214.8266666666667 82.3466666666667 208.5333333333334 89.6C235.8400000000001 85.9733333333334 256 73.4933333333334 256 58.6666666666667V42.6666666666667z" />
    <glyph glyph-name="wear-2"
      unicode="&#xEA53;"
      horiz-adv-x="256" d="M224 170.6666666666667H216.5333333333333L216 170.9866666666667C193.4933333333334 172.3733333333333 174.72 179.52 165.6533333333333 189.5466666666667L149.3333333333333 181.3333333333334C148.8 180.2666666666667 148.16 179.3066666666667 147.6266666666666 178.3466666666667C155.2 171.84 160 163.7333333333334 160 154.6666666666667C160 151.1466666666667 159.04 147.84 157.76 144.5333333333334L137.8133333333333 164.48C135.4666666666667 161.8133333333333 133.0133333333333 159.2533333333334 130.3466666666666 156.9066666666667L152 135.2533333333334C149.76 132.5866666666667 147.2 130.24 144 128L121.92 150.2933333333334C118.8266666666667 148.16 115.7333333333333 146.3466666666667 112.5333333333333 144.5333333333334L134.1866666666667 122.6666666666667C130.6666666666666 121.28 126.8266666666667 120.1066666666667 122.6666666666667 119.2533333333334L102.2933333333333 139.6266666666667C98.6666666666666 138.1333333333334 95.04 136.7466666666667 91.3066666666666 135.5733333333334L109.44 117.3333333333334H106.6666666666667C90.6666666666667 117.3333333333334 76.8 122.2400000000001 66.9866666666667 129.9200000000001C58.24 128.5333333333334 49.92 128.0000000000001 42.6666666666667 128.0000000000001C21.3333333333333 128.0000000000001 21.3333333333333 96.0000000000001 21.3333333333333 96.0000000000001C21.3333333333333 84.1600000000001 30.8266666666667 74.6666666666667 42.6666666666667 74.6666666666667V64.0000000000001C42.6666666666667 58.1333333333334 47.4666666666667 53.3333333333334 53.3333333333333 53.3333333333334S64 58.1333333333334 64 64.0000000000001V74.6666666666667H74.6666666666667V64.0000000000001C74.6666666666667 58.1333333333334 79.4666666666667 53.3333333333334 85.3333333333333 53.3333333333334S96 58.1333333333334 96 64.0000000000001V74.6666666666667H106.6666666666667V64.0000000000001C106.6666666666667 58.1333333333334 111.4666666666667 53.3333333333334 117.3333333333334 53.3333333333334S128 58.1333333333334 128 64.0000000000001V74.6666666666667H160V64.0000000000001C160 58.1333333333334 164.8 53.3333333333334 170.6666666666667 53.3333333333334S181.3333333333333 58.1333333333334 181.3333333333333 64.0000000000001V74.6666666666667H192V64.0000000000001C192 58.1333333333334 196.8 53.3333333333334 202.6666666666666 53.3333333333334S213.3333333333333 58.1333333333334 213.3333333333333 64.0000000000001V74.6666666666667H224S234.6666666666666 74.6666666666667 234.6666666666666 122.6666666666667C234.6666666666667 160 224 170.6666666666667 224 170.6666666666667z" />
    <glyph glyph-name="vert_dots-2"
      unicode="&#xEA54;"
      horiz-adv-x="256" d="M128 85.3333333333333A21.333333333333332 21.333333333333332 0 1 0 128 42.6666666666667A21.333333333333332 21.333333333333332 0 0 0 128 85.3333333333333zM128 149.3333333333334A21.333333333333332 21.333333333333332 0 1 0 128 106.6666666666667A21.333333333333332 21.333333333333332 0 0 0 128 149.3333333333334zM128 213.3333333333334A21.333333333333332 21.333333333333332 0 1 0 128 170.6666666666667A21.333333333333332 21.333333333333332 0 0 0 128 213.3333333333334z" />
    <glyph glyph-name="thumbs-up-1-2"
      unicode="&#xEA55;"
      horiz-adv-x="256" d="M245.3333333333333 149.3333333333334A21.333333333333332 21.333333333333332 0 0 1 224 170.6666666666667H156.5866666666667L166.8266666666667 219.4133333333334C167.04 220.48 167.1466666666667 221.6533333333333 167.1466666666667 222.8266666666667C167.1466666666667 227.2 165.3333333333333 231.2533333333334 162.4533333333333 234.1333333333334L151.1466666666667 245.3333333333334L80.96 175.1466666666667C77.0133333333333 171.2 74.6666666666667 165.8666666666667 74.6666666666667 160V53.3333333333333A21.333333333333332 21.333333333333332 0 0 1 96 32H192C200.8533333333333 32 208.4266666666667 37.3333333333333 211.6266666666667 45.0133333333333L243.84 120.2133333333333C244.8 122.6666666666666 245.3333333333334 125.2266666666666 245.3333333333334 128V149.3333333333333zM10.6666666666667 32H53.3333333333333V160H10.6666666666667V32z" />
    <glyph glyph-name="user-1-2"
      unicode="&#xEA56;"
      horiz-adv-x="256" d="M128 213.3333333333334A42.666666666666664 42.666666666666664 0 1 0 128 128A42.666666666666664 42.666666666666664 0 0 0 128 213.3333333333333zM128 106.6666666666667C175.1466666666667 106.6666666666667 213.3333333333333 87.5733333333334 213.3333333333333 64V42.6666666666667H42.6666666666667V64C42.6666666666667 87.5733333333334 80.8533333333333 106.6666666666667 128 106.6666666666667z" />
    <glyph glyph-name="star-empty-2"
      unicode="&#xEA57;"
      horiz-adv-x="256" d="M128 66.6666666666667L62.1653333333333 32.0533333333333L74.7413333333333 105.3653333333334L21.408 157.28L95.008 167.9466666666667L127.9253333333333 234.6453333333334L160.8426666666667 167.9466666666667L234.4426666666667 157.28L181.1093333333333 105.3653333333334L193.6853333333333 32.0533333333333L128 66.6666666666667z" />
    <glyph glyph-name="treino-2"
      unicode="&#xEA58;"
      horiz-adv-x="256" d="M219.4133333333333 97.4933333333333L234.6666666666667 112.7466666666667L219.4133333333333 128L181.3333333333333 89.92L89.92 181.3333333333334L128 219.4133333333333L112.7466666666667 234.6666666666667L97.4933333333333 219.4133333333333L82.24 234.6666666666667L59.4133333333333 211.84L44.16 227.0933333333334L28.9066666666667 211.84L44.16 196.5866666666667L21.3333333333333 173.76L36.5866666666667 158.5066666666667L21.3333333333333 143.2533333333333L36.5866666666667 128L74.6666666666667 166.08L166.08 74.6666666666667L128 36.5866666666667L143.2533333333333 21.3333333333333L158.5066666666667 36.5866666666667L173.76 21.3333333333333L196.5866666666667 44.16L211.84 28.9066666666667L227.0933333333333 44.16L211.84 59.4133333333334L234.6666666666667 82.24L219.4133333333333 97.4933333333333z" />
    <glyph glyph-name="share-square-1-2"
      unicode="&#xEA59;"
      horiz-adv-x="256" d="M224 128L149.3333333333334 202.6666666666667V160C74.6666666666667 149.3333333333334 42.6666666666667 96 32 42.6666666666667C58.6666666666667 80 96 97.0666666666667 149.3333333333333 97.0666666666667V53.3333333333333L224 128z" />
    <glyph glyph-name="times-solid-1-2"
      unicode="&#xEA5A;"
      horiz-adv-x="256" d="M202.6666666666667 187.6266666666667L187.6266666666667 202.6666666666667L128 143.04L68.3733333333333 202.6666666666667L53.3333333333333 187.6266666666667L112.96 128L53.3333333333333 68.3733333333333L68.3733333333333 53.3333333333333L128 112.96L187.6266666666667 53.3333333333333L202.6666666666667 68.3733333333333L143.04 128L202.6666666666667 187.6266666666667z" />
    <glyph glyph-name="facebook-f-1-2-2"
      unicode="&#xEA5B;"
      horiz-adv-x="256" d="M162.6986666666667 234.6666666666667C131.872 234.6666666666667 113.7813333333333 218.8053333333334 113.7813333333333 182.656V150.8586666666667H74.6666666666667V112.7573333333334H113.7813333333333V21.3333333333333H152.8853333333333V112.7573333333334H184.1813333333333L192 150.8586666666667H152.8853333333333V176.2133333333334C152.8853333333333 189.8346666666667 157.4506666666667 196.576 170.5706666666667 196.576H192V233.1093333333333C188.288 233.5893333333334 177.4933333333334 234.6666666666667 162.6986666666667 234.6666666666667z" />
    <glyph glyph-name="google-plus-1-2-2"
      unicode="&#xEA5C;"
      horiz-adv-x="256" d="M128 224C74.9546666666667 224 32 181.0453333333333 32 128S74.9546666666667 32 128 32S224 74.9546666666667 224 128C224 134.5813333333333 223.296 141.0026666666667 221.9946666666667 147.2L221.504 149.3333333333334H128V117.3333333333334H192C186.912 87.0826666666667 159.712 64 128 64C92.6613333333333 64 64 92.672 64 128C64 163.3386666666667 92.672 192 128 192C144 192 158.5813333333333 186.08 169.8346666666667 176.3733333333333L192.7466666666667 198.8373333333333A95.59466666666667 95.59466666666667 0 0 1 128 224z" />
    <glyph glyph-name="send"
      unicode="&#xEA5D;"
      horiz-adv-x="256" d="M21.3333333333333 32L245.3333333333334 128L21.3333333333333 224V149.3333333333334L181.3333333333334 128L21.3333333333333 106.6666666666667V32z" />
    <glyph glyph-name="email-2"
      unicode="&#xEA5E;"
      horiz-adv-x="256" d="M213.3333333333333 170.6666666666667L128 117.3333333333334L42.6666666666667 170.6666666666667V192L128 138.6666666666667L213.3333333333333 192V170.6666666666667zM213.3333333333333 213.3333333333334H42.6666666666667C30.8266666666667 213.3333333333334 21.3333333333333 203.84 21.3333333333333 192V64A21.333333333333332 21.333333333333332 0 0 1 42.6666666666667 42.6666666666667H213.3333333333333A21.333333333333332 21.333333333333332 0 0 1 234.6666666666667 64V192A21.333333333333332 21.333333333333332 0 0 1 213.3333333333333 213.3333333333333z" />
    </font>
</defs>
</svg>
